<svg version="1" xmlns="http://www.w3.org/2000/svg" width="1365.333" height="1365.333" viewBox="0 0 1024.000000 1024.000000"><path d="M244 1.1C173.7 5 130.8 18.1 90.8 47.7c-12.9 9.6-33.1 29.7-42.6 42.5C19.7 128.3 7.6 165 1.8 231c-1.9 21.2-1.9 540.9 0 562 4.9 55.4 13.1 86.4 31.4 118.2 18 31.6 48 61.6 79.6 79.6 31.8 18.3 62.8 26.5 118.2 31.4 21.1 1.9 540.8 1.9 562 0 30.5-2.7 54.1-6.7 74.9-12.7 47.7-13.8 92-48 119.4-92.3 20.6-33.3 29-61.7 34.4-116.7 1.5-15.2 1.7-43.6 2-273.5.4-261.1.2-281.1-3.3-313.5-2.9-26.4-9.5-56.6-15.9-72.4-20.2-49.5-57-89.7-103.8-113.2-16.1-8.1-23.9-11.1-40.2-15.2C834.3 6 810.1 2.8 772 1 746.2-.2 265.7-.1 244 1.1zm469.8 114.7c20.9 6.5 37.7 18.6 48.4 35.2 9.8 15.1 191.6 331.5 194 337.6 3.2 8.4 5.8 22 5.8 30.9 0 8.9-2.6 22.5-5.8 30.9-1.6 3.9-15.2 28.5-30.4 54.6-15.1 26.1-58 100.4-95.3 165s-69.7 120-72 123c-8.9 11.5-22 21.5-35.8 27-15.9 6.3-5.5 6.1-221.2 5.8l-196-.3-7.3-2.3c-21.4-6.6-38.3-18.8-48.9-35.3-2.2-3.5-46.3-79.5-97.9-168.9C73 583.2 57 554.9 54.1 546.5c-3.6-10-3.6-10.1-3.6-27 0-16.8.1-17.1 3.5-27 3-8.5 17.9-34.9 99-175.3 52.5-90.9 97.6-168.2 100.3-171.8 11.7-15.6 32.4-28 52.5-31.4 2.6-.4 93.8-.7 202.7-.6l198 .1 7.3 2.3z"/><path d="M311.5 131c-17 2.3-34.5 12.2-44.1 25.1-2.2 3-8.4 13-13.8 22.4-117.9 203.8-178.5 309.2-180.7 314-3.3 7-5.9 19.1-5.9 27 0 7.7 2.6 19.8 5.9 27 4.2 9.2 189.8 330.3 194.3 336 5.5 7.1 15 14.9 23.2 18.9 14.2 7-.9 6.6 215.6 6.6 217.5 0 200.2.6 215.6-7 8.6-4.2 19.4-13.3 24.3-20.4 2.3-3.3 75.5-129.8 179.1-309.6 13.1-22.6 15.5-27.6 17.6-36.5 2.9-12.5 1-32.5-4.2-42.7-.9-1.8-44.4-77.6-96.8-168.3l-95.1-165-8-8.1c-6.3-6.4-9.8-8.9-16.5-12.2-17.1-8.4 3.2-7.7-212.5-7.8-105.6-.1-194.7.2-198 .6zm139.9 107c4.4 1.7 9.5 5.8 27.5 22.1 12.2 11 22.6 19.9 23.1 19.7.5-.2 9.7-8.3 20.5-18.1 23.2-21.1 26-23.2 34.4-25.3 10.8-2.7 20.3-.4 28.8 7 12.1 10.6 12.6 30.3 1.1 41.3-8 7.5-57.4 44.7-62.9 47.3-14.4 6.8-32.9 6.2-47.7-1.4-5.4-2.8-56.7-43.2-60.9-48-10.1-11.5-9.5-27.1 1.4-37.8 10.1-9.7 21-11.9 34.7-6.8zm179.3 134c15.9 2.1 28.9 11.5 35.6 25.7 2.8 6.1 3.2 7.9 3.5 17.8.5 13.2-1.1 20.5-6.9 31.5-2.2 4.3-45.2 63.7-99.9 138l-96 130.5 89.3.5c97.7.6 92.5.3 104.7 6.5 13.7 7 20.5 24.1 17.9 44.7-2.5 19.9-12.3 30.1-33.4 34.9-4.9 1.2-30.5 1.4-141 1.4h-135l-6.5-2.3c-13.1-4.7-23.1-14.2-28.1-27-1.9-4.7-2.3-7.7-2.3-17.2-.1-12.5 1.8-20.3 7.2-30.4 1.5-2.8 46-64 99-136l96.4-131.1-83.4-.5c-74.9-.5-83.9-.7-89.1-2.3-18.9-5.6-27.1-15.1-29.8-34.5-1.3-9.2.2-20.4 3.7-28.3 2.7-6 9.5-13.4 15-16.2 4.5-2.3 13.8-4.8 21.2-5.7 10.5-1.2 248.7-1.2 257.9 0z"/></svg>