<?xml version="1.0" encoding="utf-8"?>
<!-- Generator: Adobe Illustrator 22.1.0, SVG Export Plug-In . SVG Version: 6.00 Build 0)  -->
<svg version="1.1" id="Vrstva_1" xmlns="http://www.w3.org/2000/svg" xmlns:xlink="http://www.w3.org/1999/xlink" x="0px" y="0px"
	 viewBox="0 0 1024 550" style="enable-background:new 0 0 1024 550;" xml:space="preserve">
<style type="text/css">
	.st0{fill:url(#SVGID_1_);}
	.st1{fill:#2196F3;}
	.st2{fill:#FFFFFF;}
</style>
<g>
	<g id="Layer">
		
			<linearGradient id="SVGID_1_" gradientUnits="userSpaceOnUse" x1="-16.3322" y1="-31.3698" x2="1040.6931" y2="578.9131" gradientTransform="matrix(1 0 0 -1 0 548.7717)">
			<stop  offset="0" style="stop-color:#046BB2"/>
			<stop  offset="0.24" style="stop-color:#107DCD"/>
			<stop  offset="0.52" style="stop-color:#1C8FE9"/>
			<stop  offset="0.69" style="stop-color:#2196F3"/>
			<stop  offset="1" style="stop-color:#5FBEFF"/>
		</linearGradient>
		<path class="st0" d="M3.4-5H1021c32.7,0,59.3,26.5,59.3,59.3v441.5c0,32.7-26.5,59.3-59.3,59.3H3.4c-32.7,0-59.3-26.5-59.3-59.3
			V54.2C-55.9,21.5-29.3-5,3.4-5z"/>
		
			<image style="overflow:visible;opacity:0.79;enable-background:new    ;" width="596" height="546" xlink:href="61BD164C.png"  transform="matrix(1.0258 0 0 1.0258 -52 -5.0387)">
		</image>
		<path class="st1" d="M158.8,473c-12,0-23.1-6.4-29.1-16.8L34.8,291.8c-6-10.4-6-23.2,0-33.6l94.9-164.4
			c6-10.4,17.1-16.8,29.1-16.8h189.8c12,0,23.1,6.4,29.1,16.8l94.9,164.4c6,10.4,6,23.2,0,33.6l-94.9,164.4
			c-6,10.4-17.1,16.8-29.1,16.8H158.8z"/>
		<path class="st2" d="M348.6,82.2c10.2,0,19.6,5.4,24.7,14.2l94.9,164.4c5.1,8.8,5.1,19.7,0,28.5l-94.9,164.4
			c-5.1,8.8-14.5,14.2-24.7,14.2H158.8c-10.2,0-19.6-5.4-24.7-14.2L39.2,289.2c-5.1-8.8-5.1-19.7,0-28.5l94.9-164.4
			c5.1-8.8,14.5-14.2,24.7-14.2H348.6 M348.6,71.9H158.8c-13.8,0-26.6,7.4-33.6,19.4L30.3,255.6c-6.9,12-6.9,26.8,0,38.7l94.9,164.4
			c6.9,12,19.7,19.4,33.6,19.4h189.8c13.8,0,26.6-7.4,33.6-19.4L477,294.4c6.9-12,6.9-26.8,0-38.7L382.1,91.3
			C375.2,79.3,362.4,71.9,348.6,71.9L348.6,71.9z"/>
		
			<image style="overflow:visible;opacity:0.6;enable-background:new    ;" width="232" height="340" xlink:href="61BD164D.png"  transform="matrix(1.0258 0 0 1.0258 134.6924 94.4622)">
		</image>
		<path class="st2" d="M334.8,372.9c4.4,3.5,6.6,9.1,6.6,16.7c0,7.8-2.2,13.6-6.5,17.2c-4.3,3.6-11.1,5.4-20.4,5.4H190.7
			c-7.6,0-13.7-2.3-18.1-6.8c-4.4-4.5-6.8-10.7-6.7-17c0-6.8,2.4-13.5,7.1-20.1l95.4-129.7h-74.9c-9.3,0-16.2-1.8-20.6-5.4
			c-4.4-3.6-6.7-9.1-6.7-16.6c0-7.9,2.2-13.6,6.7-17.2c4.4-3.6,11.3-5.4,20.6-5.4h118.9c7.4,0,13.4,2.2,17.8,6.7
			c4.4,4.5,6.9,10.6,6.7,16.9c0,7-2.4,13.8-7.1,20.4l-95.4,129.7h80.2C323.6,367.6,330.4,369.4,334.8,372.9z M234,170.4l-23.5-18.3
			c-4.1-3.5-6.2-7.4-6.2-11.8c0-4,1.7-7.7,4.6-10.4c2.9-2.9,6.8-4.5,10.9-4.5c4.6,0.1,9.1,2,12.3,5.3l19.5,17.7l19.5-17.7
			c3.3-3.3,7.7-5.2,12.4-5.3c4.1,0,8,1.6,10.8,4.5c2.9,2.6,4.6,6.4,4.6,10.4c0,4.5-2.1,8.5-6.2,11.8l-23.5,18.3
			C259.1,179,244.2,179,234,170.4L234,170.4z"/>
		
			<image style="overflow:visible;opacity:0.5;enable-background:new    ;" width="582" height="245" xlink:href="61BD1644.png"  transform="matrix(1.0258 0 0 1.0258 446.5304 209.3499)">
		</image>
		<path class="st2" d="M515.3,412.3c-9.2-5.4-16.6-13.4-21.2-23c-5-10-7.5-21.6-7.5-35c0-13.4,2.5-25,7.4-34.9
			c4.6-9.6,12-17.6,21.2-22.9c9.2-5.3,20.1-8,32.6-8c12.5,0,23.4,2.7,32.5,8c9.2,5.4,16.5,13.3,21.1,22.9c4.9,9.9,7.4,21.5,7.4,34.9
			c0,13.3-2.5,25-7.4,35c-4.6,9.6-12,17.6-21.2,23c-9.2,5.4-20,8-32.4,8C535.3,420.3,524.4,417.6,515.3,412.3z M575.4,389.3
			c6.6-8.1,9.9-19.8,9.9-35s-3.3-26.8-9.9-34.9c-6.6-8.1-15.8-12.1-27.6-12.1c-11.9,0-21.2,4-27.8,12.1c-6.6,8.1-9.9,19.7-9.9,34.9
			c0,15.2,3.3,26.9,9.9,35c6.6,8.1,15.9,12.2,27.8,12.2C559.6,401.5,568.8,397.5,575.4,389.3L575.4,389.3z"/>
		<path class="st2" d="M635.5,415.8c-2-2.2-3.1-5.1-2.9-8V300.9c-0.4-6,4.2-11.3,10.2-11.7c0.5,0,1,0,1.4,0c3.2-0.2,6.3,1,8.7,3.2
			c2.2,2.3,3.3,5.3,3.2,8.5v98.5h51.2c7.3,0,10.9,3.2,10.9,9.7c0,6.4-3.6,9.7-10.9,9.7h-63.6C640.1,418.7,637.4,417.7,635.5,415.8z"
			/>
		<path class="st2" d="M736.9,416.5c-2.2-2.3-3.3-5.4-3.2-8.6v-107c-0.4-6,4.2-11.3,10.2-11.7c0.5,0,1,0,1.4,0
			c3.2-0.2,6.3,1,8.7,3.2c2.2,2.3,3.3,5.3,3.2,8.5v107c0.1,3.2-1,6.3-3.2,8.6c-2.3,2.3-5.4,3.4-8.7,3.3
			C742.2,419.9,739.1,418.7,736.9,416.5z M745.4,280.1c-1.5,0-2.9-0.5-4-1.5c-1-0.9-1.6-2.2-1.6-3.6c0.1-1.6,0.9-3,2.1-4l16.6-17.1
			c2-2.3,4.8-3.6,7.8-3.6c2.4,0,4.6,0.9,6.3,2.6c1.7,1.6,2.7,3.8,2.6,6.2c0,1.6-0.6,3.2-1.5,4.6c-1.2,1.6-2.8,2.9-4.6,3.8l-20.6,12
			C747.4,279.9,746.4,280.1,745.4,280.1z"/>
		<path class="st2" d="M888.3,408.8c0,2.8-1.2,5.5-3.2,7.4c-2,2.1-4.7,3.2-7.6,3.2c-3.2-0.1-6.2-1.5-8.4-3.9l-60.7-56.8v49.2
			c0.1,3.2-1,6.3-3.2,8.6c-2.3,2.3-5.4,3.4-8.7,3.3c-3.2,0.1-6.2-1-8.5-3.3c-2.2-2.3-3.3-5.4-3.2-8.6v-107
			c-0.4-6,4.2-11.3,10.2-11.7c0.5,0,1,0,1.4,0c3.2-0.2,6.3,1,8.7,3.2c2.2,2.3,3.3,5.3,3.2,8.5v46.8l58.7-55.1
			c1.9-2.1,4.6-3.3,7.5-3.3c5.8,0.2,10.4,4.8,10.6,10.6c-0.1,3-1.4,5.7-3.7,7.7l-49,44.8l52.1,48.5
			C886.9,403,888.2,405.8,888.3,408.8z"/>
		<path class="st2" d="M991.8,289.2c2.8,0,5.5,1.2,7.5,3.2c2.1,2,3.3,4.7,3.3,7.6c0,2.6-1,5-2.7,6.9l-41.4,50.5v50.5
			c0,3.8-1.1,6.7-3.3,8.7c-2.3,2.1-5.3,3.2-8.4,3.1c-3.1,0.1-6.2-1-8.6-3.1c-2.2-2.1-3.3-5-3.3-8.7v-50.5l-41.4-50.5
			c-1.7-1.9-2.7-4.4-2.7-6.9c0-2.9,1.2-5.6,3.3-7.6c2-2,4.7-3.2,7.5-3.2c3.1,0,6,1.5,7.8,4l37.4,46.3l37.2-46.3
			C985.8,290.8,988.7,289.3,991.8,289.2z"/>
	</g>
</g>
</svg>
