<svg id="Layer" xmlns="http://www.w3.org/2000/svg" viewBox="0 0 414 414"><title>MyZoliks</title><path d="M389.47,210.08a35.08,35.08,0,0,0-27.22-12.76l.26-.45a34.94,34.94,0,0,0-23,8.68,83,83,0,0,0-68.61-1.15A78.66,78.66,0,0,1,250.31,146a35.3,35.3,0,1,0-36.63-33.9,32.63,32.63,0,0,0,.45,4.41,108,108,0,0,0-54.82,73.33,89.35,89.35,0,0,0-77.74-24.44,35.1,35.1,0,1,0-11.69,48.24,34.7,34.7,0,0,0,4.86-3.57c17.3,20,38.3,56.8,48.7,123.11a6.38,6.38,0,0,0,6.38,5.36H290a6.38,6.38,0,0,0,6.38-5.61c0-.51,6.38-50.68,38.93-78.18a35.1,35.1,0,0,0,54.15-44.68ZM51.58,205.81a22.34,22.34,0,1,1,22.33-22.34A22.34,22.34,0,0,1,51.58,205.81ZM248.91,88.7A22.34,22.34,0,1,1,226.57,111,22.34,22.34,0,0,1,248.91,88.7Zm36,236.77H135.18c-1.15-6.38-2.36-12.77-3.7-18.83h158A176.37,176.37,0,0,0,284.9,325.47ZM327.41,232a34.8,34.8,0,0,0,1.85,11.17A121.61,121.61,0,0,0,294,294.2H128.48C116.16,245.37,98,216.46,82.79,199.49a34.37,34.37,0,0,0,3.38-21.89c45.12-6.77,71.16,28.52,72.31,30.12A6.38,6.38,0,0,0,170,204.59a95.21,95.21,0,0,1,48.69-75.75,35.29,35.29,0,0,0,19.15,15.51c-2.11,48.31,26.61,71.6,27.95,72.56a6.38,6.38,0,0,0,6.38.83,71.22,71.22,0,0,1,59-1.85A34.94,34.94,0,0,0,327.41,232Zm35.1,22.34A22.34,22.34,0,1,1,384.85,232,22.34,22.34,0,0,1,362.51,254.31Z"/></svg>