<?xml version="1.0" encoding="utf-8"?>
<!-- Generator: Adobe Illustrator 22.1.0, SVG Export Plug-In . SVG Version: 6.00 Build 0)  -->
<svg version="1.1" id="Vrstva_1" xmlns="http://www.w3.org/2000/svg" xmlns:xlink="http://www.w3.org/1999/xlink" x="0px" y="0px"
	 viewBox="0 0 632.1 1309.6" style="enable-background:new 0 0 632.1 1309.6;" xml:space="preserve">
<style type="text/css">
	.st0{fill:#C7EAF9;stroke:#000000;stroke-width:3;stroke-miterlimit:10;}
	.st1{fill:#E3F4FC;stroke:#000000;stroke-width:3;stroke-miterlimit:10;}
	.st2{opacity:0.5;fill:none;stroke:#000000;stroke-width:3;stroke-miterlimit:10;enable-background:new    ;}
	.st3{opacity:0.72;fill:#82ADBE;enable-background:new    ;}
	.st4{fill:none;stroke:#000000;stroke-width:3;stroke-miterlimit:10;}
	.st5{fill:#82ADBE;stroke:#000000;stroke-width:3;stroke-miterlimit:10;}
	.st6{fill:#E4F5FD;stroke:#000000;stroke-width:3;stroke-miterlimit:10;}
	.st7{fill:#E4F5FD;}
	.st8{fill:#FFFFFF;stroke:#000000;stroke-width:4;stroke-miterlimit:10;}
	.st9{fill:#FFFFFF;stroke:#000000;stroke-width:3;stroke-miterlimit:10;}
	.st10{fill:#FFFFFF;}
</style>
<g id="Vrstva_1_1_">
	<g>
		<path class="st0" d="M410.4,1126.3c0,0-234.8-3.2-334.1,17.4c-80,16.7,112.8,21.6,97.5,37c0,0-70.5,0-118.5,17.2
			c-39,14-113,57.8,62.7,87.5c148,10.7,178.6,7,204.6,11c49.7,7.6,129.5,5.1,165.8-3.2c139.5-32.1,2.9-84.6,2.9-84.6
			C647.8,1195.4,629.7,1158.2,410.4,1126.3z"/>
		<polygon class="st1" points="144.9,1287.3 415.4,1126.3 431.9,1129.5 224.9,1291.8 		"/>
		<path class="st1" d="M356.7,1126.3l-327,135.4c0,0,13.6,7.7,39.7,13.6l295.7-149.2L356.7,1126.3z"/>
		<ellipse class="st2" cx="445.5" cy="1256.7" rx="30.1" ry="8.3"/>
		<ellipse class="st2" cx="483.7" cy="1171.7" rx="8" ry="3.4"/>
		<ellipse class="st2" cx="327.5" cy="1275.7" rx="27.3" ry="8"/>
		<ellipse class="st2" cx="184.3" cy="1148.6" rx="18.7" ry="4.9"/>
		<ellipse class="st2" cx="172" cy="1258.1" rx="14" ry="2.9"/>
		<ellipse class="st3" cx="310.9" cy="1209" rx="164.8" ry="47.3"/>
	</g>
	<line class="st4" x1="21.8" y1="922.3" x2="6.1" y2="1031.6"/>
	<line class="st4" x1="164.3" y1="141.4" x2="146.1" y2="268"/>
	<line class="st4" x1="41.9" y1="461.1" x2="21.8" y2="600.8"/>
	<line class="st4" x1="158.3" y1="997" x2="140.6" y2="1119.6"/>
	<line class="st4" x1="424.4" y1="155.1" x2="405.9" y2="284.3"/>
	<line class="st4" x1="487.7" y1="410.5" x2="473.4" y2="509.9"/>
	<line class="st4" x1="155.2" y1="719.5" x2="136.9" y2="846.9"/>
	<line class="st4" x1="502.6" y1="625.5" x2="483.7" y2="756.9"/>
	<line class="st4" x1="544.2" y1="252.6" x2="529.3" y2="356.9"/>
	<path class="st5" d="M96.9,143.5c0,0,89.9,68,157.9,36c0,0,102.5,51.1,166.3,8.6c0,0,121.8,11.4,147.8-32.6c0,0,117.1-18,14.6-78
		c0,0-56.1-60-164.3-30c0,0-72.3-78-162.3-24c0,0-81.9-4-106.9,42C149.9,65.5,44.9,77.5,96.9,143.5z"/>
</g>
<g id="Vrstva_2_1_">
	<path class="st1" d="M244.2,730.3c0,0-18.2,86-3.8,204.5c0,0-10.3,13.3-1.9,28.3c0,0,16,111.9-1,175.4c0,0,22.6,22,48-5.6
		c0,0,35.6-143.5,20.6-185.1c0,0,40-129.1,41.8-174.6S328.5,715,328.5,715l-82.4,14.2L244.2,730.3z"/>
	<path class="st6" d="M324.3,731.5c0,0-3.4,92.9,33,213.7c0,0-8.4,15.8,3.1,29.8c0,0,36.9,113.7,30.7,182.9c0,0,34.7,17.3,49-14.5
		c0,0,11.2-156-11.9-196.6c0,0,18.4-141.8,12-189.5s-30.8-57.1-30.8-57.1l-83.3,29.7L324.3,731.5z"/>
	<polygon class="st7" points="279.5,819.6 364.7,831.6 364.3,757 293.4,733 	"/>
	<circle class="st8" cx="220.3" cy="650" r="56"/>
	<path class="st9" d="M159.4,638.4c5.4,0.5,13.1,10.8,18.1,14s16.4,13.5,8.8,18.2s-20.4-10.4-20.4-10.4c4,14,11.8,21,30,29.2
		c18.2,8.3,7.7,21,7.7,21s-26.2-1.1-38.9-14.6c-12.7-13.5-23.8-23.8-26.4-33.3s3.1-37.1,28.4-89.8l21-32.2l29.5,17.9l-18.6,40.8
		c0,0-20.6,5.3-30.5,28.3l-3.6,13"/>
	<path class="st9" d="M380.3,403.6c0,0-1.9,26.8,7.7,30.2s17.6,11.3,17.6,11.3l-9.5,24.3l-87.2,10.2l-19.2-33.9l10.9-17l10.3-8.7
		c0,0,6.9,3.4,5.5-13.3"/>
	<path class="st0" d="M240.5,566.5C214,590.2,174,553.9,174,553.9s25.7-32,35-67.4s24.2-50.3,60-54.1c0,0,31.3-15.1,42.5-14.2
		c0,0-23.1,10-3,28.1c20.2,18.1,43.5,20.2,68.8,11.4s30.2-19.7,9.9-25.4c0,0,2.1-5.9,18.4,9.6c16.2,15.5,29.1,23.6,32.6,25.3
		s17.9,15.7,25.1,44.4c7.2,28.8,18.8,72.9,26.6,90.5c0,0-37,19-69.6,21.2L240.5,566.5z"/>
	<path class="st0" d="M234.6,509.5c0,0-2.5,50.1,14.3,77.6l-1,13.5c0,0,26.8,14.1,28.2,45.8c1.4,31.7-16.7,45.5-27.4,51.9
		c0,0-4,40.9-10.3,55.6c0,0,28.6,25.7,98.9,25.2s109.9-26.8,109.9-26.8s-14.2-114.5-30.8-134c0,0,6.5-47.2-10.7-75"/>
	<path class="st9" d="M420.2,623.3c0,0,13.3,84.8,4.6,119.8s-23.9,49-23.9,49s15.4,3,20.4-12.5c0,0,15.1,5.6-16,46.8
		c0,0,10.3,23.1,28.9,2.7c18.6-20.4,24.1-31.5,24.5-37.1c0,0-2.1-26.9,6.4-42.8c0,0,10.8-106,0.7-137.2
		C465.8,612,444.8,623.8,420.2,623.3z"/>
	<path class="st9" d="M423.9,782.1l-62.6,0.7l-9.6,97.1h148l9.3-96.7l-50.6-0.8c0,0,4.5,15-13.4,34.5s-24.2,30.5-39.8,9.6
		C405.3,826.4,430.7,793.5,423.9,782.1z"/>
	<g>
		<polygon class="st10" points="345.2,1222.2 334.2,1237.7 347.3,1240.8 379.8,1239.3 401.9,1225.9 421.8,1202.4 438.3,1189.3 
			438.9,1142.6 414.6,1155 		"/>
		<path class="st4" d="M419,1155c0,0,15.9-4.7,21.7-14.1"/>
		<path class="st9" d="M375.2,1168.1c0,0-21.7-32.2,4.4-37.1c26.1-4.9,66.1,10.1,31.2,39C410.8,1170,402.2,1158.4,375.2,1168.1z"/>
		<path class="st0" d="M441.3,1138.2c0,0-5,20.3-2.8,49.4c0,0-23.1,11.1-44.2,35.5c-21.1,24.5-56.9,14.7-57.6,10
			c0,0-9.7,10.7-0.5,16.5s46.9,5.4,63.2-15.3c16.3-20.7,45-36.3,45-36.3s4-8.9-4.6-10.9C431.4,1185,441.3,1138.2,441.3,1138.2z"/>
		<path class="st0" d="M410.8,1170c9.6,12.3,2.8,18.4,2.8,18.4s-6.1-6.2-17.9,18.1s-33.7,24.9-37.4,24.7c-14-1.1-15.8-4.9-15.8-4.9
			s-3.3,3.8-6.9,7.9c0,0,42.2-47.1,39.6-66.1C375.2,1168.1,401.1,1157.6,410.8,1170z"/>
	</g>
	<g>
		<polygon class="st10" points="193,1202.6 181.9,1216.7 194.1,1220.3 224.9,1220.3 246.4,1208.7 266.2,1187.4 282.3,1175.7 
			285,1131.7 261.6,1142.2 		"/>
		<path class="st4" d="M265.7,1142.4c0,0,15.2-3.8,21.1-12.4"/>
		<path class="st9" d="M223.8,1152.8c0,0-19-31.4,5.8-34.9c24.8-3.4,62,12.5,27.7,38.3C257.3,1156.2,249.7,1144.9,223.8,1152.8z"/>
		<path class="st0" d="M287.5,1127.6c0,0-5.7,19-4.9,46.5c0,0-22.3,9.4-43.4,31.5s-54.4,11.3-54.8,6.8c0,0-9.7,9.7-1.2,15.5
			s44.1,7.2,60.4-11.6c16.4-18.8,44.2-32.2,44.2-32.2s4.2-8.2-3.8-10.5C276,1171.4,287.5,1127.6,287.5,1127.6z"/>
		<path class="st0" d="M257.3,1156.2c8.5,12,1.8,17.5,1.8,17.5s-5.5-6.1-17.7,16.3s-33,22-36.4,21.6c-13.1-1.6-14.7-5.3-14.7-5.3
			s-3.3,3.4-6.9,7.2c0,0,42-42.6,40.4-60.7C223.8,1152.8,248.7,1144.1,257.3,1156.2z"/>
	</g>
	<polygon class="st0" points="367.8,804.5 388.6,804.7 383.6,856.4 363.2,855.9 	"/>
	<path class="st1" d="M374.2,856.2l-0.9,14c67.1-1.4,110.2-2.2,108.3,22.1l10.5-90.1c0,0-5.4-10.2-33.2-13.2c0,0,4.5,11.9-28.9,43.6
		c-12.7,14.3-24.7-6.1-24.7-6.1s20.6-27.3,19.6-35.8l-46.9,0.8l-1.7,13.1l12.2,0.2l-5,51.7L374.2,856.2z"/>
	<polygon class="st0" points="199.1,633.5 213,617.4 235.1,621.6 243.9,640.6 229.2,660.1 206.9,656.5 	"/>
	<path class="st0" d="M178.8,611.4l4.8,2.4l20-9.7l12-9.2l-2.8-0.7C212.9,594.2,197.6,593,178.8,611.4z"/>
	<path class="st0" d="M206.6,702.6l5.4-0.5l1.2-11.8l-15.8-16.2l-18.3-1.7l-1.7,6.3c0,0,11,8.5,18.4,10.8s11.8,7.7,11.2,14.2"/>
	<path class="st0" d="M273.9,667.1l-7.5-1.1c0,0-2.6-18-4.2-20.9l4.3-18.2l3.5-0.3C270,626.6,281,635.2,273.9,667.1z"/>
</g>
<g id="Vrstva_3">
	<g>
		<path class="st9" d="M375,418.6c0,0-32.2,33-53.7,6.9c0,0-24.6-25.8-23.7-46.3s-2.5-34.5-2.5-34.5s-3.7-26.8,4.4-39.4
			s37.9-15.3,37.9-15.3l47.2,0.4l24.9,50.4l-8.7,29.3C400.8,370.2,394.5,396.1,375,418.6z"/>
		<path class="st6" d="M295.3,346.6c0,0-11.7-48.3,27-71.4c38.7-23.2,77.7,10.4,81.8,17.9s13.4,33.2,11.4,47.5
			c0,0-19.8-4.5-23.3,11.8c0,0,0.9-53.7-19.6-60.1c0,0-44.2,33.8-64.6,8.5C307.9,300.7,293.4,306.9,295.3,346.6z"/>
		<path class="st4" d="M368.9,343.2c0,0-22.2-7.3-31.4-0.3"/>
		<path class="st4" d="M317.8,348c0,0-14.1-8.9-22.8,1.8"/>
		<path d="M368.7,354.4"/>
		<circle cx="349.6" cy="353.6" r="3.7"/>
		<circle cx="307.1" cy="357.8" r="3.5"/>
		<path class="st9" d="M396.2,366.5c0,0-2.4,6.6,5.3,8.5c7.8,1.9,10.8,0.1,15.6-23.5C422,327.9,399,338,399,338s-7,1.9-6.9,14.4"/>
		<path class="st9" d="M320.4,353.5l-3.7,22.5c0,0-7.3,19,16.2,12.3"/>
		<path class="st9" d="M360.6,405.2c0,0-31.5-7.3-43.3,1.8"/>
	</g>
	<line class="st4" x1="389.4" y1="381.5" x2="392.2" y2="392.6"/>
	<line class="st4" x1="384.6" y1="390.4" x2="387.4" y2="401.4"/>
	<line class="st4" x1="379.2" y1="400.1" x2="382" y2="411.2"/>
	<line class="st4" x1="373" y1="406.4" x2="375.7" y2="417.4"/>
	<line class="st4" x1="366.8" y1="412.6" x2="369.6" y2="423.7"/>
	<line class="st4" x1="360.1" y1="418.9" x2="362" y2="427.7"/>
	<line class="st4" x1="352.3" y1="423" x2="354" y2="431.9"/>
	<line class="st4" x1="343.9" y1="426.2" x2="344.6" y2="435.1"/>
	<line class="st4" x1="333.6" y1="426.6" x2="334.4" y2="434.4"/>
	<line class="st4" x1="326.1" y1="424.2" x2="326.8" y2="431.2"/>
</g>
</svg>
