<svg id="Layer" xmlns="http://www.w3.org/2000/svg" viewBox="0 0 414 414"><title>PayMe</title><path d="M177.2,19.2c6.51,2.28,8.93,6.9,8.91,13.73C186,80.24,186,127.55,186,174.86c0,9.58-4,13.55-13.64,13.55H30.46c-9.64,0-13.64-4-13.64-13.55,0-47.31.07-94.62-.07-141.93,0-6.83,2.39-11.45,8.9-13.73ZM38.89,103.44c0,19.86.06,39.72-.07,59.58,0,2.75.64,3.4,3.39,3.39q59.22-.15,118.44,0c2.74,0,3.39-.63,3.38-3.38q-.15-59.22,0-118.44c0-2.75-.63-3.39-3.38-3.39q-59.22.15-118.44,0c-2.74,0-3.41.63-3.39,3.39C39,64.2,38.89,83.82,38.89,103.44Z"/><path d="M393.5,180.32c-2.93,6.36-8,8.23-14.8,8.2-46.93-.2-93.87-.11-140.8-.11-9.61,0-13.61-4-13.61-13.58,0-47.3.07-94.6-.07-141.9,0-6.83,2.39-11.45,8.9-13.73H384.67A13.32,13.32,0,0,1,393.5,28ZM246.36,103.81c0,19.74.06,39.48-.07,59.22,0,2.75.65,3.39,3.39,3.38q59.22-.15,118.44,0c2.75,0,3.38-.64,3.38-3.39q-.15-59.22,0-118.43c0-2.76-.65-3.39-3.39-3.39q-59.22.15-118.44,0c-2.75,0-3.4.65-3.38,3.39C246.42,64.33,246.36,84.07,246.36,103.81Z"/><path d="M393.5,387.79c-2.93,6.36-7.95,8.28-14.8,8.2-23-.29-46.07-.07-69.11-.13-8.44,0-13.82-7.5-11-15,1.73-4.51,5.75-7.08,11.33-7.08,19.24,0,38.48-.08,57.72.06,2.94,0,4.05-.49,3.83-3.69a105.43,105.43,0,0,1,0-14.33c.23-3.25-1-3.69-3.87-3.67-18.62.13-37.25.07-55.87.06-10,0-13.91-3.91-13.91-14.06,0-16.17-.07-32.35,0-48.52.05-8.36,7.82-13.77,15.16-10.63,4.62,2,6.87,5.71,6.88,10.73,0,12.13.16,24.27-.1,36.39-.07,3.54,1.09,4.11,4.27,4.09,18.63-.15,37.25-.08,55.88-.07,8,0,10.8,1.92,13.52,9.05Z"/><path d="M393.5,292.15c-.19.14-.45.24-.55.43-3,6-7.5,8.62-12.74,7.42-5.69-1.3-8.77-5.72-8.78-12.66q0-23.5,0-47c0-7.75,3.1-12.34,9.1-13.5,5.51-1.06,10.11,2,13,8.67Z"/><path d="M186,311.66q0,35.49,0,71c0,9.11-4.11,13.24-13.2,13.25H30.17c-9.32,0-13.34-4.08-13.35-13.48V240.11c0-9.38,4.05-13.44,13.39-13.44H172.87c9.06,0,13.16,4.14,13.16,13.29Q186,275.81,186,311.66ZM164,311.4c0-19.74,0-39.48,0-59.22,0-2.47-.2-3.54-3.23-3.53q-59.41.19-118.81,0c-2.66,0-3.14.77-3.13,3.26q.12,59.4,0,118.8c0,2.66.76,3.14,3.25,3.14q59.4-.14,118.81,0c2.66,0,3.15-.76,3.13-3.25C163.91,350.88,164,331.14,164,311.4Z"/><path d="M224.29,263.22c0-8.09,0-16.17,0-24.26,0-7.85,4.44-12.27,12.3-12.28q24.43-.06,48.87,0c7.41,0,12.42,4.55,12.37,11.1s-5,10.94-12.53,10.95c-12,0-24,.08-36,0-2.41,0-3,.63-3,3,.13,12,.08,24,.06,36,0,7.47-4.43,12.47-11,12.51s-11.07-5-11.09-12.38C224.26,279.63,224.29,271.42,224.29,263.22Z"/><path d="M246.36,363c0,7,0,14,0,20.95s-4.77,12-11.2,11.91c-6.28-.1-10.82-5-10.85-11.89q-.08-21,0-41.9c0-7.1,4.66-11.92,11.2-11.84,6.35.08,10.8,4.87,10.85,11.82S246.36,356,246.36,363Z"/><path d="M124.6,103.82c0,4.89,0,9.77,0,14.66,0,5.35-3.13,8.48-8.46,8.49q-14.79.06-29.58,0c-5.15,0-8.28-3.19-8.3-8.39q0-14.79,0-29.58c0-5.17,3.17-8.34,8.32-8.36q14.79-.06,29.59,0c5.31,0,8.39,3.16,8.43,8.52C124.63,94,124.6,98.93,124.6,103.82Z"/><path d="M285.72,103.55c0-4.8,0-9.6,0-14.41,0-5.35,3.12-8.48,8.44-8.5q14.79,0,29.58,0c5.15,0,8.29,3.19,8.31,8.37q0,14.79,0,29.58c0,5.18-3.16,8.35-8.32,8.37q-14.91.06-29.83,0c-5,0-8.13-3.23-8.18-8.25S285.72,108.6,285.72,103.55Z"/><path d="M101.43,335.32c-5.07,0-10.14,0-15.21,0-5.56,0-8.81-3.24-8.83-8.76q-.06-15.35,0-30.7c0-5.35,3.31-8.61,8.69-8.63q15.35,0,30.69,0c5.39,0,8.68,3.28,8.7,8.63q.06,15.48,0,31c0,5.18-3.34,8.44-8.55,8.49S106.59,335.32,101.43,335.32Z"/></svg>