<svg id="Layer" xmlns="http://www.w3.org/2000/svg" viewBox="0 0 414 414"><defs><style>.cls-1{fill:#fff;}.cls-2,.cls-3{fill:none;stroke:#fff;stroke-linecap:round;stroke-miterlimit:10;}.cls-2{stroke-width:16px;}.cls-3{stroke-width:13px;}</style></defs><title>ScanQR</title><path class="cls-1" d="M188.28,94c3.93,1.38,5.39,4.16,5.37,8.28-.08,28.54,0,57.07,0,85.61,0,5.78-2.41,8.17-8.23,8.17H99.77c-5.81,0-8.22-2.39-8.22-8.17,0-28.54,0-57.07,0-85.61,0-4.12,1.44-6.9,5.37-8.28Zm-83.42,50.81c0,12,0,24,0,35.94,0,1.66.39,2,2,2q35.71-.09,71.44,0c1.65,0,2-.38,2-2q-.09-35.72,0-71.44c0-1.65-.38-2-2-2q-35.73.09-71.44,0c-1.66,0-2.06.38-2,2C104.9,121.1,104.86,132.94,104.86,144.77Z"/><path class="cls-1" d="M318.75,191.14c-1.77,3.84-4.8,5-8.93,5-28.31-.12-56.62-.06-84.93-.07-5.79,0-8.2-2.4-8.2-8.19,0-28.53,0-57.06-.05-85.59,0-4.12,1.44-6.9,5.37-8.28h91.41a8,8,0,0,1,5.33,5.33ZM230,145c0,11.91,0,23.82-.05,35.72,0,1.66.39,2,2.05,2q35.72-.09,71.44,0c1.66,0,2-.39,2-2q-.09-35.72,0-71.44c0-1.66-.39-2-2.05-2q-35.71.09-71.43,0c-1.66,0-2.06.39-2.05,2C230,121.18,230,133.09,230,145Z"/><path class="cls-1" d="M318.75,316.28c-1.77,3.84-4.8,5-8.93,5-13.89-.17-27.79,0-41.68-.08-5.1,0-8.34-4.52-6.61-9,1-2.72,3.46-4.27,6.83-4.27,11.61,0,23.21-.05,34.81,0,1.78,0,2.44-.29,2.31-2.22a63.87,63.87,0,0,1,0-8.64c.13-2-.59-2.23-2.34-2.22-11.23.08-22.47,0-33.7,0-6.06,0-8.39-2.36-8.39-8.48,0-9.76,0-19.52,0-29.27,0-5,4.72-8.3,9.14-6.41a6.52,6.52,0,0,1,4.15,6.47c0,7.32.1,14.64-.06,21.95,0,2.13.66,2.48,2.58,2.47,11.23-.09,22.47-.05,33.7,0,4.81,0,6.52,1.15,8.16,5.45Z"/><path class="cls-1" d="M318.75,258.59c-.11.09-.27.15-.33.26-1.83,3.63-4.53,5.2-7.69,4.48-3.43-.78-5.29-3.45-5.29-7.63q0-14.19,0-28.36c0-4.67,1.87-7.44,5.49-8.14,3.32-.64,6.1,1.21,7.82,5.22Z"/><path class="cls-1" d="M193.61,270.37v42.8c0,5.5-2.48,8-8,8H99.59c-5.61,0-8-2.45-8-8.12q0-42.92,0-85.84c0-5.65,2.44-8.1,8.07-8.1h86c5.47,0,7.94,2.5,7.94,8Zm-13.31-.16c0-11.91,0-23.81,0-35.72,0-1.49-.12-2.14-2-2.13q-35.82.12-71.66,0c-1.6,0-1.89.46-1.89,2q.08,35.84,0,71.67c0,1.6.46,1.89,2,1.89q35.83-.08,71.66,0c1.61,0,1.9-.46,1.89-2C180.27,294,180.3,282.12,180.3,270.21Z"/><path class="cls-1" d="M216.68,241.15c0-4.88,0-9.76,0-14.63s2.68-7.41,7.42-7.41q14.74,0,29.48,0c4.47,0,7.49,2.75,7.46,6.7s-3,6.6-7.56,6.61c-7.24,0-14.48.05-21.72,0-1.45,0-1.82.38-1.81,1.81.08,7.24,0,14.49,0,21.73,0,4.5-2.67,7.52-6.61,7.54s-6.68-3-6.69-7.46C216.67,251.05,216.68,246.1,216.68,241.15Z"/><path class="cls-1" d="M230,301.33c0,4.22,0,8.43,0,12.64s-2.88,7.24-6.76,7.18-6.52-3-6.54-7.17q0-12.63,0-25.27c0-4.29,2.81-7.19,6.76-7.14s6.51,2.94,6.54,7.13S230,297.12,230,301.33Z"/><path class="cls-1" d="M156.56,145c0,2.95,0,5.9,0,8.84,0,3.23-1.89,5.12-5.1,5.13q-8.92,0-17.84,0c-3.11,0-5-1.92-5-5.05q0-8.92,0-17.85a4.66,4.66,0,0,1,5-5q8.92,0,17.85,0c3.2,0,5.06,1.9,5.08,5.14C156.57,139.1,156.56,142.05,156.56,145Z"/><path class="cls-1" d="M253.74,144.84c0-2.9,0-5.8,0-8.69,0-3.23,1.89-5.12,5.1-5.13q8.91,0,17.84,0a4.67,4.67,0,0,1,5,5q0,8.93,0,17.84a4.67,4.67,0,0,1-5,5.05q-9,0-18,0a4.64,4.64,0,0,1-4.93-5C253.72,150.94,253.74,147.89,253.74,144.84Z"/><path class="cls-1" d="M142.58,284.64c-3.06,0-6.12,0-9.18,0-3.35,0-5.31-1.95-5.32-5.28q0-9.25,0-18.51c0-3.23,2-5.2,5.24-5.21q9.26,0,18.51,0c3.25,0,5.23,2,5.25,5.2q0,9.35,0,18.68a4.83,4.83,0,0,1-5.16,5.12C148.8,284.66,145.69,284.64,142.58,284.64Z"/><path class="cls-2" d="M297.5,23.1h49.62a42.62,42.62,0,0,1,42.5,42.5V113"/><path class="cls-2" d="M20.62,113V65.6a42.62,42.62,0,0,1,42.5-42.5H107.5"/><path class="cls-2" d="M20.62,303v46.6a42.63,42.63,0,0,0,42.5,42.5H107.5"/><path class="cls-2" d="M389.62,303v46.6a42.62,42.62,0,0,1-42.5,42.5H297.5"/><line class="cls-3" x1="20" y1="161.5" x2="390" y2="161.5"/></svg>