<?xml version="1.0" encoding="utf-8"?>
<!-- Generator: Adobe Illustrator 22.1.0, SVG Export Plug-In . SVG Version: 6.00 Build 0)  -->
<svg version="1.1" id="Vrstva_1" xmlns="http://www.w3.org/2000/svg" xmlns:xlink="http://www.w3.org/1999/xlink" x="0px" y="0px"
	 viewBox="0 0 1080 1796.8" style="enable-background:new 0 0 1080 1796.8;" xml:space="preserve">
<style type="text/css">
	.st0{fill:#FEFEFE;}
	.st1{fill:#03A8F3;}
	.st2{fill:#646464;}
	.st3{fill:#012839;}
	.st4{fill:#00A3CB;}
	.st5{fill:#145666;}
	.st6{fill:#D2D2D2;}
	.st7{fill:#585858;}
	.st8{fill:#FDFEFE;}
	.st9{fill:#FDFDFD;}
	.st10{fill:#F6F7F8;}
	.st11{fill:#F9FAFA;}
	.st12{fill:#F2F4F4;}
	.st13{fill:#010101;}
	.st14{fill:#7B7B7B;}
	.st15{fill:#787878;}
	.st16{fill:#797979;}
	.st17{fill:#818181;}
	.st18{fill:#848484;}
	.st19{fill:#0D0D0D;}
	.st20{fill:#0E0E0E;}
	.st21{fill:#181818;}
	.st22{fill:#777777;}
	.st23{fill:#7A7A7A;}
	.st24{fill:#7E7E7E;}
	.st25{fill:#161616;}
	.st26{fill:#E3E3E3;}
	.st27{fill:#868686;}
	.st28{fill:#858585;}
	.st29{fill:#050505;}
	.st30{fill:#828282;}
	.st31{fill:#070707;}
	.st32{fill:#232323;}
	.st33{fill:#111011;}
	.st34{fill:#FAFDFD;}
	.st35{fill:#F9FCFD;}
	.st36{fill:#F4FAFC;}
	.st37{fill:#D2EEF5;}
	.st38{fill:#082E3E;}
	.st39{fill:#FCFCFC;}
	.st40{fill:#FAFAFA;}
	.st41{fill:#060606;}
	.st42{fill:#F7F7F7;}
	.st43{fill:#E6E6E6;}
	.st44{fill:#E9E9E9;}
	.st45{fill:#EDEDED;}
	.st46{fill:#DBDBDB;}
	.st47{fill:#F4F4F4;}
	.st48{fill:#E0E0E0;}
	.st49{fill:#C4C4C4;}
	.st50{fill:#04A5CC;}
	.st51{fill:#09A6CD;}
	.st52{fill:#101010;}
	.st53{fill:#030204;}
	.st54{fill:#F6F6F6;}
	.st55{fill:#141315;}
	.st56{fill:#161617;}
	.st57{fill:#010002;}
	.st58{fill:#0E0E0F;}
</style>
<g>
	<g>
		<path class="st0" d="M1,1795c0-108,0-216,0-324c1.3-1.2,3-1.4,4.7-1.4c1.5,0,3,0,4.5,0c298.1,0,596.1,0,894.2,0
			c2.9,0,6-0.7,8.8,1.1c1.7,2.1,1.5,4.7,1.5,7.2c0,103.4,0,206.7,0,310.1c0,2.5,0.2,5-1.3,7.2c-1.7,1.4-3.7,1.4-5.7,1.4
			c-3.3,0.1-6.7,0-10,0c-295.3,0-590.6,0-886,0C8.1,1796.6,4.2,1797.5,1,1795z"/>
		<path class="st1" d="M1,384C1,277.3,1,170.7,1,64c1.5-1.3,3.3-1.5,5.1-1.6c1.5-0.1,3,0,4.5,0c297.3,0,594.5,0,891.8,0
			c3.3,0,6.7-0.6,9.8,1.3c1.5,1.9,1.2,4.1,1.2,6.2c0,102.7,0,205.3,0,308c0,2.1,0.3,4.4-1.1,6.3c-1.5,1.3-3.4,1.3-5.2,1.4
			s-3.7,0.1-5.5,0.1c-296.7,0-593.3,0-890,0C8.1,385.6,4.2,386.5,1,384z"/>
		<path class="st2" d="M912.9,1794.9c0-2,0.1-4,0.1-6c0-104,0-207.9,0-311.9c0-2-0.1-4-0.1-6c-0.4-0.5-0.7-1.1-1-1.7
			c-0.6-1.8-0.5-3.6-0.5-5.4c0-40.6,0-81.2,0-121.8c0-0.8,0-1.7,0.1-2.5c0-0.7,0-1.3,0-2c-0.3-35-0.1-70.1-0.1-105.1
			c0-8.3-0.2-16.6,0.1-24.9c0-0.7,0-1.3,0-2c-0.3-34.7-0.1-69.4-0.1-104.1c0-8.6-0.2-17.3,0.1-25.9c0-0.7,0-1.3,0-2
			c-0.3-34.7-0.1-69.4-0.1-104.1c0-8.6-0.2-17.3,0.1-25.9c0-0.7,0-1.3,0-2c-0.3-34.7-0.1-69.4-0.1-104.1c0-8.6-0.2-17.3,0.1-25.9
			c0-0.7,0-1.3,0-2c-0.3-27.9-0.1-55.7-0.1-83.6c0-1.8,0.1-3.7,1.3-5.2c1.9-1.5,4.1-1.2,6.2-1.2c51.9,0,103.9,0,155.8,0
			c2.1,0,4.4-0.2,6.2,1.4c0,358,0,716,0,1074c-1.9,1.7-4.3,1.6-6.6,1.6c-51.6,0-103.3,0-154.9,0
			C917.1,1796.6,914.7,1796.9,912.9,1794.9z"/>
		<path class="st3" d="M1,384c303.6,0,607.2,0,910.8,0c1.8,1.5,1.6,3.6,1.6,5.5c0,50.6,0.1,101.3,0,151.9c0,5.8-1.1,6.8-7.1,7.1
			c-2,0.1-4,0-6,0c-296.1,0-592.1,0-888.2,0c-3.7,0-7.7,1-11.1-1.6C1,492.7,1,438.3,1,384z"/>
		<path class="st0" d="M912.8,1075.1c0,43.6,0,87.3,0,130.9c-1.3,1.3-3,1.4-4.6,1.4c-1.7,0-3.3,0-5,0c-297.5,0-595,0-892.6,0
			c-3.2,0-6.7,0.9-9.7-1.4c0-43.7,0-87.3,0-131c1.3-1.2,3-1.4,4.7-1.4s3.3,0,5,0c297.5,0,595,0,892.6,0
			C906.5,1073.6,909.9,1072.6,912.8,1075.1z"/>
		<path class="st0" d="M913.2,721c-0.1,26-0.1,52-0.2,78c0,3.7-0.1,7.3-0.1,11c-1.3,1.3-3,1.4-4.6,1.4c-1.7,0-3.3,0-5,0
			c-297.5,0-595,0-892.6,0c-3.2,0-6.7,0.9-9.7-1.4c0-43.7,0-87.3,0-131c1.3-1.2,3-1.4,4.7-1.4s3.3,0,5,0c297.6,0,595.3,0,892.9,0
			c3.1,0,6.4-0.7,9.3,0.9c1.2,1.1,1.5,2.6,1.5,4.1c0,12.2,0.6,24.5-0.3,36.7C913.9,719.9,913.6,720.5,913.2,721z"/>
		<path class="st0" d="M912.8,1339.1c0,43.6,0,87.3,0,130.9c-1.5,1-3.2,0.5-4.9,0.5c-300.7,0-601.4,0-902.1,0
			c-1.6,0-3.3,0.4-4.9-0.5c0-43.7,0-87.3,0-131c1.3-1.2,3-1.4,4.7-1.4s3.3,0,5,0c297.5,0,595,0,892.6,0
			C906.5,1337.6,909.9,1336.6,912.8,1339.1z"/>
		<path class="st0" d="M1,547c301.7,0,603.3,0,905,0.1c5,0,6.2-1.1,6.2-6.1c-0.2-50.5-0.1-101-0.1-151.5c0-1.8-0.1-3.7-0.2-5.5
			c0.1-2,0.2-4,0.2-6c0-102.7,0-205.3,0-308c0-2,0.1-4,0.1-6c0.7-0.2,1.3,0,1.6,0.6c0.9,1.9,0.9,3.9,0.9,5.9c0,46,0,91.9,0,137.9
			c0,0.8-0.1,1.7-0.1,2.5c0.3,11.7,0.1,23.3,0.1,35c0,42.5,0,85,0,127.5c0,2,0.1,4-0.1,6c0,0.7,0,1.3,0,2
			c0.3,10.6,0.1,21.3,0.1,31.9c0,43.4,0,86.8,0,130.2c0,2,0.1,4-0.1,6c0,0.7,0,1.3,0,2c0.3,31.2,0.1,62.4,0.1,93.6
			c0,8.8,0,17.6,0,26.4c0,2.3,0.2,4.7-1.4,6.7c-1.8,0.7-3.6,0.4-5.4,0.4c-300.4,0-600.9,0-901.3,0c-1.8,0-3.7,0.5-5.4-0.5
			C1,634.3,1,590.7,1,547z"/>
		<path class="st0" d="M912.8,1207.1c0,43.6,0,87.3,0,130.9c-1.5,1-3.2,0.5-4.9,0.5c-300.7,0-601.4,0-902.1,0
			c-1.6,0-3.3,0.4-4.9-0.5c0-43.7,0-87.3,0-131c1.7-0.9,3.6-0.5,5.4-0.5c300.4,0,600.7,0,901.1,0
			C909.3,1206.5,911.1,1206,912.8,1207.1z"/>
		<path class="st0" d="M912.8,811.1c0,43.6,0,87.3,0,130.9c-1.3,1.3-3,1.4-4.6,1.4c-1.7,0-3.3,0-5,0c-297.5,0-595,0-892.6,0
			c-3.2,0-6.7,0.9-9.7-1.4c0-43.7,0-87.3,0-131c1.7-0.9,3.6-0.5,5.4-0.5c300.4,0,600.7,0,901.1,0C909.3,810.5,911.1,810,912.8,811.1
			z"/>
		<path class="st0" d="M912.8,943.1c0,43.6,0,87.3,0,130.9c-1.5,1-3.2,0.5-4.9,0.5c-300.7,0-601.4,0-902.1,0c-1.6,0-3.3,0.4-4.9-0.5
			c0-43.7,0-87.3,0-131c1.7-0.9,3.6-0.5,5.4-0.5c300.4,0,600.7,0,901.1,0C909.3,942.5,911.1,942,912.8,943.1z"/>
		<path class="st4" d="M913,64.1l-0.4-0.1h-0.4c-2,0-4-0.1-6-0.1C604.4,64,302.7,64,1,64C1,44,1.1,24,0.9,4c0-2.5,0.6-3.5,3.1-3
			c0.5,0.1,1,0,1.5,0c357,0,714,0,1071-0.1c3.7,0,4.6,0.8,4.6,4.6c-0.2,19.5-0.1,39-0.1,58.5c-1.9,1.7-4.3,1.6-6.6,1.6
			c-51.6,0-103.2,0-154.7,0C917.3,65.6,914.9,65.8,913,64.1z"/>
		<path class="st2" d="M913.2,380c-0.1-16.3-0.2-32.6-0.2-48.9c0-40.1,0.1-80.1,0.2-120.2c1.9-1.8,4.3-1.6,6.6-1.6
			c51.5,0,103.1,0,154.6,0c2.3,0,4.7-0.1,6.6,1.6c0,56.3,0,112.7,0,169c-1.8,1.6-4,1.4-6.2,1.4c-51.8,0-103.7,0-155.5,0
			C917.2,381.4,914.9,381.7,913.2,380z"/>
		<path class="st2" d="M913.2,550c-0.1-22.1-0.2-44.2-0.2-66.3c0-34.2,0.1-68.5,0.2-102.7c1.4-0.8,2.9-0.5,4.4-0.5
			c53,0,106,0,159.1,0c1.5,0,3-0.4,4.4,0.5c0,56.3,0,112.7,0,169c-1.8,1.6-4,1.4-6.2,1.4c-51.8,0-103.7,0-155.5,0
			C917.2,551.4,914.9,551.7,913.2,550z"/>
		<path class="st2" d="M912.8,677.9c0.1-40,0.1-80,0.2-120c0-2.3,0.1-4.7,0.2-7c1.4-0.8,2.9-0.5,4.4-0.5c53,0,106,0,159.1,0
			c1.5,0,3-0.4,4.4,0.5c0,56.3,0,112.7,0,169c-1.4,0.8-2.9,0.5-4.4,0.5c-53,0-106,0-159.1,0c-1.5,0-3,0.4-4.4-0.5
			c-0.1-13.7-0.2-27.3-0.3-41c-0.3-0.2-0.4-0.5-0.3-0.7C912.7,678.1,912.8,677.9,912.8,677.9z"/>
		<path class="st5" d="M1081,211c-55.9,0-111.9,0-167.8,0c-0.1-26.3-0.1-52.6-0.2-78.9c0-22.6,0-45.3,0-67.9
			c41.4,0,82.8-0.1,124.1-0.1c14.6,0,29.3,0,43.9,0C1081,113,1081,162,1081,211z"/>
		<path class="st6" d="M1,1470c301.8,0,603.6,0,905.4,0c2.2,0,4.3,0,6.5-0.1c0,0.4,0,0.7,0,1.1c-2.2,0-4.3-0.1-6.5-0.1
			c-301.8,0-603.6,0-905.4,0C1,1470.7,1,1470.3,1,1470z"/>
		<path class="st6" d="M1,1338c301.8,0,603.6,0,905.4,0c2.2,0,4.3,0,6.5-0.1c0,0.4,0,0.7,0,1.1c-2.2,0-4.3-0.1-6.5-0.1
			c-301.8,0-603.6,0-905.4,0C1,1338.7,1,1338.3,1,1338z"/>
		<path class="st6" d="M912.8,677.9c0,0.4,0,0.7,0,1.1c-2.2,0-4.3-0.1-6.5-0.1c-301.8,0-603.6,0-905.4,0c0-0.3,0-0.7,0-1
			c301.8,0,603.6,0,905.4,0C908.5,678,910.7,678,912.8,677.9z"/>
		<path class="st6" d="M912.8,1207.1c-2.2,0-4.3-0.1-6.5-0.1c-301.8,0-603.6,0-905.4,0c0-0.3,0-0.7,0-1c301.8,0,603.6,0,905.4,0
			c2.2,0,4.3,0,6.5-0.1C912.8,1206.3,912.8,1206.7,912.8,1207.1z"/>
		<path class="st6" d="M912.8,811.1c-2.2,0-4.3-0.1-6.5-0.1c-301.8,0-603.6,0-905.4,0c0-0.3,0-0.7,0-1c301.8,0,603.6,0,905.4,0
			c2.2,0,4.3,0,6.5-0.1C912.8,810.3,912.8,810.7,912.8,811.1z"/>
		<path class="st6" d="M912.8,943.1c-2.2,0-4.3-0.1-6.5-0.1c-301.8,0-603.6,0-905.4,0c0-0.3,0-0.7,0-1c301.8,0,603.6,0,905.4,0
			c2.2,0,4.3,0,6.5-0.1C912.8,942.3,912.8,942.7,912.8,943.1z"/>
		<path class="st6" d="M1,1074c301.8,0,603.6,0,905.4,0c2.2,0,4.3,0,6.5-0.1c0,0.4,0,0.7,0,1.1c-2.2,0-4.3-0.1-6.5-0.1
			c-301.8,0-603.6,0-905.4,0C1,1074.7,1,1074.3,1,1074z"/>
		<path class="st7" d="M1081,381c-55.9,0-111.9,0-167.8,0c0-0.3,0-0.6,0-1c55.9,0,111.9,0,167.8,0C1081,380.3,1081,380.7,1081,381z"
			/>
		<path class="st7" d="M1081,551c-55.9,0-111.9,0-167.8,0c0-0.3,0-0.6,0-1c55.9,0,111.9,0,167.8,0C1081,550.3,1081,550.7,1081,551z"
			/>
		<path class="st7" d="M913.2,720c55.9,0,111.9,0,167.8,0c0,0.3,0,0.7,0,1c-55.9,0-111.9,0-167.8,0
			C913.2,720.7,913.2,720.3,913.2,720z"/>
		<path class="st8" d="M153.7,468.2c0-5.5,0.1-11-0.1-16.5c-0.1-2.6,0.3-3.9,3.4-3.8c8,0.2,16,0.2,23.9,0c3-0.1,3.5,1,3.5,3.7
			c0,2.8-0.5,4.3-3.8,4.1c-4.8-0.3-9.6,0-14.5-0.1c-2.4-0.1-3.1,0.8-3.2,3.1c-0.3,7.5-0.4,7.5,7.2,7.5c2.3,0,4.7,0.2,7,0
			c3.1-0.3,4.7,0.2,4.8,4.1c0,4-2,3.7-4.6,3.7c-3.7-0.1-7.3,0.1-11-0.1c-2.5-0.1-3.7,0.6-3.4,3.3c0.2,2.1-0.2,4.4,0.1,6.5
			c0.7,4.4-1,5.6-5.3,5.4c-3.6-0.1-4.4-1.2-4.2-4.6C153.9,479.1,153.7,473.6,153.7,468.2z"/>
		<path class="st9" d="M215.8,478.3c0,1.5,0.1,3,0,4.5c-0.2,2,1.1,5.4-0.9,5.8c-2.4,0.4-6.1,2.8-8-1.7c-0.5-1.3-1.5,0.3-2.2,0.7
			c-4.3,2-8.7,2.1-13,0.3c-3.7-1.6-5.6-4.6-5.5-8.7s2.4-6.7,6.2-8.2c3.4-1.3,6.9-0.8,10.4-1c1.2-0.1,3,0.9,3.4-0.9
			c0.5-1.9-1-3.2-2.6-3.7c-3.4-1.1-7-1.1-10.2,0.6c-3.8,2-3.9-1.3-5.1-3.1c-1.7-2.6,0.7-3.1,2.2-3.8c4.8-2.3,10-2.7,15.1-1.6
			c6.6,1.3,9.9,5.8,10.2,13.4C215.9,473.3,215.8,475.8,215.8,478.3L215.8,478.3z"/>
		<path class="st9" d="M294.8,478.2c0,1.7,0.2,3.4-0.1,5c-0.3,1.9,1.5,5.1-1.3,5.5c-2.3,0.3-5.8,2.4-7.6-1.7
			c-0.7-1.5-1.5,0.1-2.2,0.5c-4.1,2-8.3,2.1-12.6,0.6c-4-1.5-6.2-4.4-6.1-8.8s2.5-7,6.5-8.4c3.4-1.2,6.9-0.6,10.4-0.9
			c1.1-0.1,3,1,3.2-1.2c0.1-1.4-0.9-2.6-2.1-3.1c-3.4-1.5-7-1.6-10.1,0.1c-3.8,2.1-4.5-0.5-5.7-2.8c-1.8-3.4,1.3-3.5,3-4.2
			c4.4-2.1,9.1-2.2,13.7-1.5c6.9,1.1,10.5,5.6,10.9,13.4C294.9,473.2,294.8,475.7,294.8,478.2L294.8,478.2z"/>
		<path class="st9" d="M69.9,464c0,4,0.2,8,0,12c-0.3,5.4-2.1,10.2-7.7,12.3c-6.1,2.3-12.1,1.8-17.6-2c-2.8-2-1.4-3.9,0.2-5.9
			c1.4-1.9,2.4-3.4,4.8-0.8c2,2.2,4.7,3.1,7.8,1.7c3-1.4,3-4.1,3-6.8c0-5.3-0.1-10.7,0.1-16c0-2.2-0.6-3-2.8-2.9
			c-2.3,0.1-4.7-0.2-7,0.1c-4.2,0.6-4.6-1.6-4.5-4.9c0.1-2.1,0.6-2.9,2.8-2.9c6,0.1,12,0.1,18,0c2.4-0.1,3.2,0.6,3.1,3.1
			C69.8,455.4,69.9,459.7,69.9,464L69.9,464z"/>
		<path class="st9" d="M248.6,450c2.9-0.7,4.3,0.6,3.7,3.9c-0.4,2.6,0.7,3.8,3.3,3.4c3.5-0.6,4.4,0.8,4.5,4.3
			c0.1,3.7-1.8,3.7-4.2,3.4c-2.8-0.4-3.9,0.7-3.6,3.6c0.2,2.5,0.1,5,0,7.5c0,3.6,1.2,6,5.3,5c4-1,3.1,2.6,4,4.2
			c1.2,2.4-1.1,2.7-2.6,3.2c-8.8,2.9-15.8-2.1-16-11.3c-0.1-2.8,0-5.7,0-8.5c0-2,0.5-4.1-2.8-3.8c-2.8,0.3-2-2.1-2-3.5
			c0-1.6-1-4.1,2.1-4.1c2.2,0,2.7-0.9,2.8-2.9C243.3,449.9,243.4,450,248.6,450z"/>
		<path class="st9" d="M232.2,467.8c0,6-0.3,12,0.1,17.9c0.2,3.8-2,3.5-4.3,3.3c-2.1-0.2-5.1,1.4-5-3.1c0.2-12.3,0.2-24.6,0-36.8
			c-0.1-4.6,3-2.8,5.1-3c2.4-0.3,4.5-0.4,4.3,3.3C232,455.5,232.2,461.6,232.2,467.8z"/>
		<path class="st9" d="M95.1,473c0-3.5-0.1-7,0.1-10.5c0.1-1.8-1.1-5,1-5.2c2.5-0.2,6.3-2.9,7.9,1.8c0.5,1.4,1.2,0.4,1.8,0.1
			c1.4-0.6,2.7-1.6,4.1-1.7c1.6-0.2,4.5-2,4.6,1.3c0,2.2,2.7,6.3-3,6.4c-4.5,0.1-6.8,3.1-7.1,7.5c-0.2,4-0.5,8-0.1,11.9
			c0.4,4.1-1.4,4.4-4.8,4.5c-3.9,0.2-4.9-1.1-4.5-4.7C95.3,480.6,95.1,476.8,95.1,473z"/>
		<path class="st9" d="M87.2,473c0,3.5,0,7,0,10.4c0,5.2-3.1,7.3-7.9,5.6c-1.7-0.6-1.2-1.8-1.2-2.8c0-8.8,0.1-17.6-0.1-26.3
			c-0.1-4.7,3.3-2.4,5.2-2.8c2.2-0.4,4.3-0.5,4,3C87,464.4,87.2,468.7,87.2,473z"/>
		<path class="st9" d="M120.1,472.8c0-4.3,0.2-8.6-0.1-12.9c-0.2-4.2,2.7-2.8,4.7-2.9c2,0,4.7-1.2,4.6,2.9c-0.2,8.8-0.2,17.6,0,26.3
			c0.1,4.4-3.1,2.4-4.9,2.6s-4.5,1.2-4.3-2.7C120.2,481.8,120.1,477.3,120.1,472.8z"/>
		<path class="st10" d="M115.9,444.6c-7,11.4-15,11.8-22.1,0.2c3.2-1,6.1-1,8.4,1.7c1.5,1.8,3.1,2.4,4.8,0.3
			C109.3,444,112.3,443.9,115.9,444.6z"/>
		<path class="st11" d="M83,443c3.1,0.2,5.4,1.7,5.2,5.2c-0.2,3.5-2.5,4.9-5.8,4.8s-5.5-1.7-5.3-5.2C77.2,444.3,79.7,443,83,443z"/>
		<path class="st12" d="M119.9,452.7c4.1-5.5,7.9-10.7,15.5-8C132.7,450.1,126.8,453.3,119.9,452.7z"/>
		<path class="st13" d="M64.6,1141.6c10.4,5.2,17.3,12.8,18.8,24.4c0.2,1.7,1.5,3.7-1.6,4.2c-2.8,0.4-3.2-1.3-3.5-3.5
			c-2.2-13.1-12.1-21.7-24.7-21.7s-22.6,8.7-24.7,21.7c-0.4,2.2-0.7,3.9-3.5,3.5c-3.1-0.5-1.8-2.6-1.6-4.2
			c1.5-11.1,6.3-17.4,18.8-24.6c-4.6-4.7-7.5-10.1-6.3-16.9c0.7-4.2,2.7-7.8,6.1-10.6c7.2-6,17.5-5.5,24,1.2
			C73.2,1122.3,72.7,1132.2,64.6,1141.6z"/>
		<path class="st14" d="M137.9,1137.9c-0.2,3,0.4,6.5-0.6,9.9c-1.7,5.8-5.7,8.4-12.5,8.2c-6-0.2-9.7-3.2-10.9-9
			c-1.2-5.9-0.4-11.9-0.6-17.9c0-1.4,0.6-2.2,2.1-2.1c1.4,0.1,1.5,1.1,1.5,2.1c0,4.8,0,9.6,0.1,14.5c0.1,6.6,2.9,9.5,8.8,9.5
			c5.8,0,8.3-2.7,8.5-9.2c0.2-4.6,0-9.3,0.1-14c0-1.3-0.3-2.9,1.8-2.9s1.7,1.6,1.7,2.9C137.9,1132.4,137.9,1134.9,137.9,1137.9z"/>
		<path class="st15" d="M171.4,1146c1.5,6.5,6.3,8.7,12.5,6.2c1.1-0.4,2.4-2.2,3.4-0.4c0.9,1.9-1.2,2.4-2.4,3
			c-4.3,2.3-10.5,1.3-13.9-2.1c-3.3-3.3-4.1-8.6-2-13c2.1-4.3,6.6-6.6,11.7-5.7c2.9,0.5,5.3,1.9,7,4.4c1.3,2,2.5,4.5,1.6,6.5
			c-0.9,2.1-3.6,0.8-5.4,0.9C179.7,1146.1,175.6,1146,171.4,1146z"/>
		<path class="st16" d="M155.5,1156c-5.4,0-9.6-2.8-11.1-7.3c-1.5-4.6,0-9.7,3.7-12.5c3.6-2.7,9.5-3.1,13.1-0.6
			c1.1,0.8,3.1,1.5,1.9,3.3c-1.1,1.6-2.2,0-3.3-0.7c-3.8-2.3-8.4-1.8-10.8,1.3c-2.7,3.4-2.8,7.1-0.2,10.6c2.3,3.2,6.9,4,10.8,1.9
			c1.2-0.7,2.5-2.6,3.6-0.6c0.9,1.6-1.1,2.4-2.3,3.2C159.2,1155.8,157.2,1156.1,155.5,1156z"/>
		<path class="st14" d="M202.1,1156c-4,0.1-6.2-1.9-6.4-5.9c-0.2-3-0.2-6-0.3-9c-0.1-1.9,0.7-4.2-2.5-4.4c-0.1,0-0.3-0.2-0.4-0.3
			c-0.7-0.4-0.7-1.7-0.5-1.7c3.9,0,2.4-5,5.2-5.7c2-0.4,1.7,1.5,1.8,2.7c0.2,3.5,2.9,1.6,4.5,2.1c0.7,0.2,1.8-0.1,1.9,1
			c0.1,1.3-0.7,1.9-1.8,1.8c-5.4-0.9-4.8,2.8-4.7,6.1c0.1,2.2,0,4.3,0,6.5c0,2.4,1.1,3.6,3.6,3.8c1.3,0.1,3.8-1.9,3.8,1.1
			C206.2,1156,203.8,1155.9,202.1,1156z"/>
		<path class="st17" d="M148.5,1126c4,2.3,7.7,4,11.4-1c-0.8,3.6-2.6,5.7-4.5,6C151.7,1131.6,150.3,1128.6,148.5,1126z"/>
		<path class="st18" d="M123.7,1124.4c2.3-1.8,3.7-5.2,7.6-4.3C128.7,1123.8,127.7,1124.4,123.7,1124.4z"/>
		<path class="st19" d="M30.7,764.4c-1.9,2.1,0.8,6.6-2,6.4c-3-0.3-1-4.4-1.4-6.8c-0.8-4.3,0.3-7.2,5.6-6.1c2.9,0.6,6.1-1.1,8.9,1.1
			c-2.5,2.8-5.9,0.7-8.7,1.5c-0.1,0-0.3,0.1-0.5,0.2c-0.8,1.4,0.5,2.1,1.3,2.8c8.6,8.8,21.9,10.9,32.6,5.2c11-5.8,16.7-18,14.4-30.3
			c-0.2-1.3-1.9-3.4,0.1-3.8c2.1-0.4,1.9,2.2,2.2,3.7c2.5,12.3-2.8,24.8-13.4,31.5c-10.5,6.7-24.2,6.1-34.2-1.3
			C33.9,767.1,32.3,765.7,30.7,764.4z"/>
		<path class="st20" d="M64.1,729.3c4.2-2.2,7.4-0.8,10.4-1.6c-2-6.4-13.2-12.5-22.3-11.2c-21.8,3.1-28.5,17.1-25.5,37.8
			c-6.1-5-3.4-22.2,4-30.3c12-13.1,28.3-13.4,45.8-0.4c1.7-1.9-0.9-6.4,1.8-6.2c3.1,0.3,1,4.4,1.5,6.7c1,4.8-0.7,7.2-6,6.3
			C71.1,729.9,68.1,730.9,64.1,729.3z"/>
		<path class="st21" d="M46.6,760.9c5.4,0,9.7-0.1,14,0c1.3,0,3.6-0.9,3.7,1.2c0.1,2.2-2.1,1.5-3.5,1.6c-4.8,0.1-9.7,0-14.5,0
			c-1.3,0-2.9,0.4-3.5-1.1c-0.6-1.4,0.5-2.5,1.3-3.6c5.1-7.3,10.3-14.7,16-22.9c-5.4,0-9.9,0-14.5,0c-1.1,0-2.7,0.4-2.8-1.2
			c-0.1-1.7,1.6-1.4,2.6-1.4c5.2-0.1,10.3,0,15.5,0c4,0,3.6,1.7,1.8,4.2C57.6,745.1,52.4,752.6,46.6,760.9z"/>
		<path class="st15" d="M301.4,750c1.5,6.5,6.3,8.7,12.5,6.2c1.1-0.4,2.4-2.2,3.4-0.4c0.9,1.9-1.2,2.4-2.4,3
			c-4.3,2.3-10.5,1.3-13.9-2.1c-3.3-3.3-4.1-8.6-2-13c2.1-4.3,6.6-6.6,11.7-5.7c2.9,0.5,5.3,1.9,7,4.4c1.3,2,2.5,4.5,1.6,6.5
			c-0.9,2.1-3.6,0.8-5.4,0.9C309.7,750.1,305.6,750,301.4,750z"/>
		<path class="st15" d="M170,751.6c0,1.3,0,2.7,0,4c0,3.5,0,3.5-3.3,2.2c-0.9-0.4-1.4,0.5-2,0.9c-1.9,1.2-4,1.4-6.2,1.3
			c-3.9-0.3-6.9-1.9-7.2-6.1c-0.2-4.1,2.6-5.8,6.3-6.4c1.6-0.3,3.3-0.1,5-0.3c1.4-0.2,3.8,1.1,4.1-1.4c0.2-2.3-1.2-4.2-3.6-4.7
			c-2.6-0.5-5.3-0.4-7.8,0.9c-0.8,0.4-1.8,1.3-2.6,0c-0.9-1.6,0.5-2.1,1.5-2.5c3.9-1.9,8-2.4,12-0.4c3.7,1.8,4,5.4,3.9,9
			C169.9,749.3,170,750.4,170,751.6z"/>
		<path class="st15" d="M244,751.5c0,1.8,0.1,3.7,0,5.5c-0.1,1,0.6,2.5-1.1,2.9c-1.2,0.3-1.6-0.4-2-1.5c-0.7-1.8-1.5-0.1-2.1,0.3
			c-2.8,1.6-5.7,1.8-8.7,0.9c-2.9-0.8-5-2.8-4.9-6.1c0.1-3,1.8-4.8,4.7-5.7c2.3-0.7,4.6-0.5,6.9-0.7c1.3-0.1,3.4,0.9,3.7-1.3
			c0.3-2.1-0.9-4-3-4.6c-2.6-0.8-5.2-0.6-7.8,0.5c-1,0.4-2.5,2-3.3-0.1c-0.6-1.8,1.3-2,2.4-2.5c8.4-4,15,0.1,15.1,9.4
			C244,749.5,244,750.5,244,751.5z"/>
		<path class="st22" d="M255.2,749.1c6.3-3.3,9-10.1,16.3-11.5c-0.4,1.1-0.5,1.5-0.8,1.8c-2.3,2.8-7.2,4.6-7,7.9
			c0.2,3,4,5.8,6.2,8.7c0.8,1,1.6,2.1,2.6,3.2c-2,1.4-3.4,0.6-4.6-0.9c-1.5-1.8-2.8-3.7-4.4-5.4c-1.1-1.1-1.8-3.7-3.4-3
			c-2.2,0.9-4.3,2.5-4.8,5.3c-0.1,0.8,0,1.7-0.1,2.5c0,1,0.1,2.1-1.4,2.2c-1.8,0.1-1.7-1.2-1.7-2.4c0-3.8,0-7.7,0-11.5
			c0-4.8,0-9.7,0-14.5c0-1.1-0.2-2.5,1.6-2.5s1.5,1.5,1.5,2.6C255.2,737.3,255.2,742.9,255.2,749.1z"/>
		<path class="st23" d="M178,748.8c0-2.8,0-5.7,0-8.5c0-1.6,1.5-3.2,2.1-2c2,4,3.7,0.8,5.4,0.2c6.2-2.3,12.1,0.9,13,7.5
			c0.5,3.8,0.2,7.6,0.3,11.5c0,1.2,0.1,2.5-1.6,2.5c-2.1,0.1-1.9-1.5-1.9-2.8c0-3.2,0-6.3,0-9.5c0-3.8-1.4-6.5-5.6-6.8
			c-4.2-0.3-7.3,1.4-8,5.7c-0.5,3.1-0.2,6.3-0.4,9.4c-0.1,1.4,1,3.9-1.6,3.8c-2.5-0.1-1.3-2.6-1.4-4
			C177.9,753.5,178,751.1,178,748.8z"/>
		<path class="st24" d="M119.2,747.1c0-1.7,0-3.3,0-5c0-7.4,0-7.4-7.5-8.3c-1.1-0.1-2.6,0.1-2.5-1.6c0.1-1.8,1.7-1.3,2.7-1.3
			c6.1-0.1,12.3,0,18.4,0c1,0,2.6-0.4,2.5,1.4c-0.1,1.7-1.6,1.3-2.7,1.4c-7.3,0.7-7.3,0.7-7.3,7.9c0,5,0,10,0,14.9
			c0,1.4,0.6,3.3-1.9,3.2c-2.4-0.1-1.7-2-1.7-3.4C119.1,753.4,119.2,750.2,119.2,747.1z"/>
		<path class="st23" d="M212.5,759.9c-3,0.2-5.1-0.2-7.1-1.2c-0.9-0.4-2.5-0.6-1.9-2.3c0.7-1.7,1.9-0.9,2.9-0.4
			c2.5,1.2,5.1,1.3,7.8,1c1.8-0.2,3.4-0.8,3.6-2.8c0.3-2.1-1.4-2.8-3.1-3.2c-2.4-0.6-4.9-1-7.2-1.8c-2.2-0.7-3.6-2.3-3.7-4.8
			c-0.1-2.4,1-4.2,3.1-5.3c3.8-1.9,7.7-1.5,11.6-0.1c1,0.4,1.8,1.1,1.2,2.2c-0.4,0.9-1.3,0.9-2.1,0.5c-2.2-1.1-4.5-1.1-6.8-0.9
			c-1.8,0.2-3.3,1-3.6,2.8c-0.3,2.1,1.2,2.9,3,3.3c1.8,0.4,3.6,0.7,5.3,1.2c3,0.8,5.9,1.9,5.6,5.8c-0.2,4-3.1,5.2-6.4,5.8
			C213.8,760.1,212.8,759.9,212.5,759.9z"/>
		<path class="st16" d="M285.9,738c2-0.2,4.3,0.6,6.3,2.3c0.8,0.7,2.2,1.4,0.9,2.8c-0.9,0.9-1.7,0.6-2.5-0.2c-1-0.9-2.1-1.6-3.5-1.8
			c-3.8-0.5-7,0.4-8.9,3.9c-1.8,3.4-1.5,6.9,1.1,9.7c2.8,3,6.3,3.3,10,1.6c1.3-0.6,2.8-3.1,4-0.6c0.9,1.8-1.5,2.6-2.9,3.4
			c-4,2.2-9.7,1.3-13-1.8c-3.7-3.5-4.4-7.8-2.6-12.3C276.5,740.1,280.3,738,285.9,738z"/>
		<path class="st23" d="M136,749.1c0-3,0-6,0-9c0-1.4,1.4-2.8,1.8-1.9c2.1,3.6,3.9,0.6,5.8,0.2c1.2-0.3,2.8-1.1,3.4,0.7
			c0.5,1.6-1,1.7-2.2,1.9c-4.2,0.9-5.4,4.1-5.6,7.8c-0.2,2.8,0,5.7-0.1,8.5c0,1.1,0.4,2.6-1.4,2.7c-2.2,0.1-1.7-1.6-1.7-2.8
			C136,754.4,136,751.7,136,749.1z"/>
		<path class="st25" d="M59.1,725.8c-0.7,1.9-2,3.4-3.7,4.3c-1.1,0.6-2.7,2.1-3.9,0.6c-1.3-1.6-3.6-2.8-3.6-5.1
			c0-1.9,1.7-1.4,2.4-0.4c2.2,3.2,4.1,3.2,6.3,0C57.2,724.4,58.4,724,59.1,725.8z"/>
		<path class="st26" d="M52.8,1432.2c2.3-0.2,2.3,1.4,2.2,3c-0.1,1.8-1.2,2.8-3,2.8c-6.7,0-13.4,0.5-20-0.3
			c-6.3-0.7-10.9-7.3-11-14.8c-0.2-13-0.2-26,0-39c0.1-7.3,5.3-12.5,12.4-14.1c5.5-1.2,10.9-0.9,16.4-0.6c2.3,0.2,6.1,0.6,5.7,4.2
			c-0.3,3.3-3.5,3.5-6.3,3.5c-4,0-8,0-12,0c-6,0.1-8.2,2.1-8.2,8.1c-0.1,12.7-0.1,25.3,0,38c0,5.7,2.2,7.8,7.8,7.9
			c3.8,0.1,7.7-0.1,11.5,0C49.9,1431.1,51.8,1430.3,52.8,1432.2c-7,2.3-14.1,1.9-21,0.3c-4.4-1-5.5-5.5-6-9.5
			c-0.6-4.5-0.2-9-0.2-13.5c0-7.2-0.1-14.3,0-21.5c0.2-10.1,4.3-14.1,14.5-14.4c3.3-0.1,6.6,0.1,9.9-0.5c-4.8-0.9-9.7-1-14.6-0.2
			c-7.2,1.2-10.6,4.9-10.8,12.2c-0.3,12.3-0.3,24.6,0,37c0.2,8.2,4,12,12.1,13.2c3.6,0.5,7.3,0.3,11,0.2
			C50,1435.4,51.9,1434.5,52.8,1432.2z"/>
		<path class="st15" d="M126.6,1391c9.1,0,15.5,6,15.5,14.6c0,8.4-6.3,14.3-15.1,14.4c-9.1,0.1-15.7-5.9-15.8-14.3
			C111,1397.2,117.5,1391,126.6,1391z"/>
		<path class="st15" d="M165.1,1400.9c0-3.4,0-6.3,0-9.3c0-1.1-0.1-2.5,1.6-2.5c1.4,0,1.5,1,1.5,2.1c0,9,0,17.9,0,26.9
			c0,1.5-1.6,2.6-2.1,1.7c-1.9-3.8-3.8-0.8-5.6-0.2c-4.7,1.6-10,0-12.9-4c-2.7-3.9-2.6-9.8,0.3-13.5c3-3.8,8.4-5.2,13-3.2
			C162.4,1399.3,163.5,1400,165.1,1400.9z"/>
		<path class="st26" d="M53.4,1407.1c-4.2,0-8.3,0-12.5,0c-2.2,0-4.8,0.2-4.8-2.9c-0.1-3.2,2.2-4.2,5-4.2c8.2,0,16.3,0,24.5,0
			c1.6,0,3.8,0.9,4.6-0.7c1-1.8-1.4-2.7-2.4-3.8c-1.6-1.8-2.9-3.7-0.8-5.6c1.8-1.7,4.1-1.2,5.8,0.5c3.3,3.3,6.7,6.5,9.8,9.9
			c2.2,2.4,2.1,5.2-0.2,7.6c-2.8,3-5.8,6-8.8,8.8c-1.8,1.7-4,3.5-6.5,0.9c-2.3-2.3-0.4-4.2,0.8-6.2c0.7-1.2,3-1.8,2.1-3.5
			c-0.8-1.5-2.7-0.9-4.2-0.9C61.8,1407.1,57.6,1407.1,53.4,1407.1z"/>
		<path class="st16" d="M179.2,1401c3.3-2.3,6-3.3,9.1-3c4.3,0.4,7.1,2.5,8,6.8s0.3,8.6,0.5,12.9c0,1.3-0.4,2.3-2,2.2
			c-1.3-0.1-1.5-1.1-1.5-2.1c0-3.3,0-6.7,0-10c0-3.8-1.2-6.5-5.4-6.9c-4.5-0.4-7.7,1.6-8.3,6c-0.5,3.4-0.2,7-0.3,10.4
			c0,1.1,0.3,2.5-1.5,2.6s-1.6-1.3-1.6-2.4c0-8.6,0-17.3,0-25.9c0-1.1-0.2-2.5,1.6-2.4s1.5,1.5,1.5,2.6
			C179.2,1394.5,179.2,1397.3,179.2,1401z"/>
		<path class="st15" d="M232,1412c0,1.7,0.1,3.3,0,5c-0.1,1,0.6,2.5-1,2.9c-1.1,0.3-1.6-0.3-2-1.4c-0.6-1.9-1.5-0.1-2.1,0.2
			c-2.9,1.7-6,1.8-9.1,0.8c-2.7-0.9-4.6-2.9-4.4-5.9c0.1-3,1.8-4.8,4.7-5.7c2.3-0.7,4.6-0.5,6.9-0.7c1.3-0.1,3.4,0.9,3.7-1.2
			s-0.9-4-3-4.6c-2.6-0.8-5.2-0.6-7.8,0.5c-1,0.4-2.5,2-3.3,0c-0.7-1.8,1.3-2,2.4-2.6c8.4-4,15.1,0.1,15.1,9.3
			C232,1409.6,232,1410.8,232,1412z"/>
		<path class="st23" d="M245.6,1420c-2.4,0.1-4.6-0.5-6.7-1.6c-0.8-0.4-1.9-0.8-1.3-2.2c0.6-1.3,1.5-0.9,2.5-0.4
			c2.8,1.3,5.8,1.5,8.8,1.1c1.5-0.2,2.9-1,3-2.8c0.1-1.9-1.3-2.6-2.8-3c-2.4-0.7-4.9-1-7.3-1.7c-2.4-0.7-4-2.3-4-5.1
			c0-2.7,1.3-4.4,3.7-5.4c3.4-1.4,6.8-1.2,10.2-0.1c1.1,0.3,2.5,0.6,2.1,2.2c-0.5,1.7-1.7,1.1-2.8,0.6c-2.2-1-4.6-0.9-6.9-0.6
			c-1.6,0.2-2.9,1.2-3,2.9c-0.2,1.8,1.1,2.7,2.7,3.1c1.9,0.5,3.9,0.8,5.8,1.3c3,0.8,5.8,2,5.5,5.9c-0.3,3.7-2.9,4.9-6,5.6
			C248,1420.1,246.8,1420,245.6,1420z"/>
		<path class="st14" d="M280.9,1417c1-0.3,2.4-0.7,2.5,1c0.1,1.5-1.4,1.6-2.5,1.9c-4.6,1.1-7.8-1.2-8.3-6c-0.2-2.6-0.2-5.3-0.3-8
			c0-1,0.4-2.6-0.1-2.9c-4.8-2.9-0.3-5.5,0.1-8.2c0.2-1.2,0.7-1.8,1.9-1.8c1,0.1,1.6,0.6,1.5,1.5c-0.3,3,1.2,3.7,3.8,3.4
			c1-0.1,2.6-0.6,2.7,1.2c0.1,1.6-1.4,1.8-2.5,1.6c-3.5-0.5-4.2,1.3-4,4.3c0.2,2.5,0.1,5,0,7.5C275.8,1416,277.3,1417.5,280.9,1417z
			"/>
		<path class="st16" d="M204,1404c0-4.1,0-8.3,0-12.4c0-1.1-0.2-2.5,1.5-2.5c1.8,0,1.6,1.4,1.6,2.5c0,8.6,0,17.2,0,25.8
			c0,1.1,0.2,2.5-1.5,2.5c-1.8,0-1.6-1.4-1.6-2.5C204,1413,204,1408.5,204,1404z"/>
		<path class="st16" d="M264.2,1409c0,3,0,5.9,0,8.9c0,1-0.1,2-1.5,2.1c-1.4,0-1.6-0.9-1.6-2c0-5.9,0-11.9,0-17.8c0-1,0.1-2,1.5-2.1
			c1.4,0,1.6,0.9,1.6,2C264.2,1403,264.2,1406,264.2,1409z"/>
		<path class="st27" d="M230.5,1390.3c-3.6,1.9-5.2,5.1-9.4,4.5C223.6,1392.2,225.3,1389.3,230.5,1390.3z"/>
		<path class="st28" d="M262.7,1389c1.3,0.1,2.2,0.7,2.1,2.1c-0.1,1.1-0.8,1.7-1.9,1.8c-1.3,0.1-2.3-0.5-2.4-1.8
			C260.4,1389.8,261.3,1389.1,262.7,1389z"/>
		<path class="st29" d="M68.2,594.1c0.1,2.8-1.2,5-3.8,5.9c-3.7,1.3-2.6,3.8-1.6,6c1,2.4,1.2,5.8,5.6,4.4c4.9-1.5,10,0.7,15.2-0.2
			c3.9-0.7,6.6,3.8,5.9,8c-0.7,3.8-4.8,6.8-8.1,5.1c-4.5-2.4-5.9,0.1-7.5,3.2c-0.5,0.9-0.9,1.8-1.4,2.6c-1.3,2.3-0.4,5.9-2.7,7.3
			c-2.7,1.7-6.2,0.6-9.3,0.6c-6,0.1-12-0.1-18,0.1c-3.4,0.1-5.1-0.8-5.6-4.5c-0.8-5.6-2.7-10.9-5.6-15.9c-1.2-2.1-2.3-3.7-5.4-2.7
			c-3.3,1.1-6.4-0.2-7.8-3.6c-1.1-2.7-0.9-5.6,1.5-7.8c2.7-2.4,5.7-2.4,8.7-0.6c4.7,2.9,10.8,1.3,15.2,5.1c1,0.9,1.4-1,1.7-1.8
			c1.5-3.8,3.9-7,7.3-9.3c1.8-1.2,1.8-3,2.5-4.6c1.5-3.5,4.2-5.3,8-4.3C66.3,588,68.3,590.3,68.2,594.1z"/>
		<path class="st22" d="M129.1,620.2c3.9-6.7,7.4-12.7,11-18.7c0.7-1.2,1.2-3.1,3.2-2.3c1.6,0.6,0.9,2.3,0.9,3.5c0.1,7,0.1,14,0,21
			c0,1.4,1,3.9-1.5,4c-2.7,0.1-1.6-2.4-1.6-3.8c-0.1-5.4-0.1-10.9-1-16.7c-2.9,4.7-5.8,9.5-8.5,14.3c-1.8,3.1-3.2,3.4-5.1,0.1
			c-2.8-4.8-5.7-9.5-9.6-14c0,5.7,0,11.5,0,17.2c0,1.2,0.5,3-1.5,3c-2.1,0-1.6-1.8-1.6-3c0-7.7,0-15.3,0-23c0-1.1-0.4-2.5,1.2-2.8
			c1.4-0.3,2,0.9,2.6,1.9C121.4,607.2,125.1,613.4,129.1,620.2z"/>
		<path class="st15" d="M200.7,628c-6.6,0-11.2-3.9-11.7-9.6c-0.6-6.3,2.9-11.3,8.4-12.3c6-1.1,11.2,2.2,12.7,7.8
			c0.7,2.8,0.6,4.4-3,4.1c-4.1-0.3-8.3,0-12.5-0.1c-2.8-0.1-2.6,1.1-1.7,3c2,4,6.9,5.3,12.2,3.1c1.1-0.5,2.5-2,3.3,0
			c0.6,1.6-1.2,2.1-2.3,2.7C204.4,627.8,202.4,628.1,200.7,628z"/>
		<path class="st22" d="M315,606.9c-1.9,3.5-7.8,4.9-7.2,8.7c0.5,3.4,4.5,6.4,7,9.5c0.6,0.8,1.1,1.6,1.8,2.4c-2.3,1-3.7,0.2-4.9-1.4
			c-1.2-1.6-2.4-3.3-3.8-4.6c-1.3-1.3-1.9-4.3-4.1-3.3s-4.6,2.8-4.6,6c0,1.4,1.1,3.9-1.7,3.7c-2.2-0.2-1.3-2.4-1.3-3.7
			c-0.1-8-0.1-16,0-24c0-1.2-0.6-3,1.5-3s1.5,1.8,1.6,3c0.1,5.4,0,10.9,0,17.7c4-3.6,7.1-6.4,10.2-9.2c1.6-1.4,3-3.3,5.6-2.2
			C315,606.5,315,606.7,315,606.9z"/>
		<path class="st15" d="M162.4,628c-6.8,0.1-11.4-4.4-11.4-11.1c0-6.4,4.5-10.9,11.1-10.9c6.8-0.1,11.6,4.6,11.6,11.1
			C173.5,623.3,168.8,627.9,162.4,628z"/>
		<path class="st15" d="M257.1,628c-6.5,0-11.1-4.4-11.2-10.8c-0.1-6.7,4.5-11.2,11.3-11.2c6.5,0,11.2,4.5,11.3,10.8
			C268.7,623.3,263.8,628,257.1,628z"/>
		<path class="st16" d="M315,606.9c0-0.2,0-0.4,0-0.6c3.1-1,4.8,0.2,6,3.3c1.9,4.8,4.2,9.4,6.4,14.3c3.8-6,4.9-13.2,9.6-18.2
			c0.6,0.3,1.2,0.6,1.7,0.9c-4.1,8.7-8,17.6-12.3,26.2c-1.7,3.4-6.6,4.3-9.6,2.5c-0.9-0.5-1.9-1-1.2-2.2c0.5-0.9,1.2-0.9,2.1-0.5
			c2.5,1.1,4.7,0.9,6.5-1.6c1.8-2.4,1.1-4.5-0.1-6.9c-2.2-4.6-4.2-9.4-6.4-14C317.1,608.7,317,606.9,315,606.9z"/>
		<path class="st16" d="M238.2,608.8c-4.3,0-7.5,0-10.8,0c-1,0-2.2,0.1-2.3-1.3c-0.2-1.9,1.4-1.5,2.4-1.5c4-0.1,8,0,12,0
			c1,0,2.2-0.4,2.8,0.6c0.8,1.2-0.3,2.2-1,3.1c-3.4,4.3-6.9,8.6-10.3,12.9c-0.5,0.6-0.9,1.3-1.9,2.7c3.9,0,6.9-0.1,10,0
			c1.3,0.1,3.5-0.8,3.5,1.6c0,2-2,1.2-3.2,1.2c-3.8,0.1-7.7,0.1-11.5,0c-1.1,0-2.5,0.6-3-0.9c-0.4-1.3,0.5-2.2,1.3-3.1
			C230,619.2,233.8,614.4,238.2,608.8z"/>
		<path class="st30" d="M182.9,618.9c-0.2,4-0.1,8-0.7,11.9c-0.7,4.4-5,6.6-9.1,5c-0.9-0.3-2-0.7-1.5-2.1c0.3-0.9,1-1.1,2-0.9
			c4.9,1.2,5.6-1.6,5.6-5.6c-0.1-6-0.1-11.9,0-17.9c0-1.3-0.6-3.3,1.8-3.3c2.4,0.1,1.7,2,1.7,3.4c0.1,3.2,0,6.3,0,9.5
			C182.7,618.9,182.8,618.9,182.9,618.9z"/>
		<path class="st16" d="M277.2,613c0,4.1,0,8.3,0,12.4c0,1.1,0.2,2.5-1.5,2.5s-1.5-1.4-1.5-2.5c0-8.6,0-17.2,0-25.8
			c0-1.1-0.2-2.5,1.6-2.5c1.8,0,1.5,1.4,1.5,2.5C277.2,604.1,277.2,608.5,277.2,613z"/>
		<path class="st16" d="M285.1,616.8c0-3,0-5.9,0-8.9c0-1.1,0.5-1.9,1.8-1.8c1.1,0.1,1.3,0.9,1.3,1.7c0,6.1,0,12.2,0,18.3
			c0,1.1-0.4,1.9-1.7,1.8c-1.4-0.2-1.3-1.2-1.3-2.2C285,622.7,285.1,619.7,285.1,616.8z"/>
		<path class="st17" d="M239.4,597.6c-5.7,7.3-6.8,7.3-12.1,0.3C231.4,599.6,235.4,602.1,239.4,597.6z"/>
		<path class="st27" d="M293.6,598.3c-3.7,2-5.4,5.1-9.6,4.6C286.6,600.2,288.4,597.4,293.6,598.3z"/>
		<path class="st28" d="M180.1,601c-1.2-0.2-2.1-1-1.8-2.3s1.3-1.8,2.6-1.6c1.1,0.2,1.8,0.9,1.7,2C182.5,600.4,181.5,601,180.1,601z
			"/>
		<path class="st31" d="M64,1252c5.4-6.1,10.4-5.4,13.9,1.8c1.3,2.7-0.5,4.3-2.2,6c-1.1,1.1-3.1,2.1-2.4,4c0.7,2.1,2.9,1.2,4.4,1.2
			c5.6,0.2,6.1,0.8,6.1,7.1c0,6.3-0.4,6.7-6.2,6.9c-1.5,0.1-3.6-0.8-4.3,1.4c-0.6,1.7,1.1,2.8,2.2,3.6c4.2,3.3,3.3,6.1-0.2,9.3
			c-4.9,4.5-5.2,4.7-9.7,0.6c-1.1-1-1.9-2.7-3.7-2s-1.2,2.5-1.3,3.9c-0.3,6.3-0.4,6.2-7.2,6.5c-4.7,0.2-7.5-0.9-6.8-6.3
			c0.2-1.4,0.6-3.3-1.1-4.1c-1.9-0.9-2.9,1.1-4.1,2.1c-4.3,4-4.6,3.8-9.7-1c-3.3-3.1-4.2-5.8-0.3-9c1.2-1,3.1-2.1,2.3-4
			c-0.8-2-3-1.2-4.5-1.1c-5.1,0.5-6.2-2.3-6.1-6.7c0.1-4.2,0.2-7.8,5.9-7.4c1.5,0.1,3.7,0.9,4.5-0.9c1.1-2.2-1.2-3.3-2.4-4.4
			c-4.2-3.5-2.3-6.1,0.8-9c2.8-2.7,5.3-5.4,9-1.2c1.1,1.3,2.2,3.5,4.3,2.7s1.1-3.2,1.3-4.9c0.2-2.1-0.3-5.1,2.6-5.2
			c3.6,0,8-2.5,10.8,2.1c1.1,1.8,0.4,3.8,0.5,5.8C60.6,1252.8,61.9,1253,64,1252z"/>
		<path class="st15" d="M117,1265.7c0,7.2,0,13.3,0,19.5c0,1.1,0.4,2.5-1.3,2.7c-2.1,0.2-1.8-1.5-1.8-2.7c0-7.6,0-15.3,0-22.9
			c0-1.1-0.6-2.5,0.9-3c1.6-0.6,2.4,0.6,3.3,1.6c4.4,5.4,8.7,10.9,13.1,16.3c1,1.2,1.7,2.8,4,3.7c0-6.4,0-12.4,0-18.5
			c0-1.3-0.7-3.4,1.8-3.3c2.4,0.1,1.7,2.1,1.7,3.4c0.1,7.3,0.1,14.6,0,21.9c0,1.2,0.6,2.9-1.1,3.4c-1.8,0.6-2.7-0.9-3.6-2
			c-4.9-6.1-9.9-12.1-14.8-18.2C118.7,1267.2,118.2,1266.8,117,1265.7z"/>
		<path class="st15" d="M258.4,1278c1.5,6.5,6.3,8.7,12.6,6.2c1.1-0.4,2.4-2.2,3.4-0.3c0.9,1.8-1.2,2.4-2.4,3
			c-4.3,2.3-10.5,1.3-13.9-2.1c-3.3-3.3-4.1-8.6-2-13c2.1-4.3,6.6-6.5,11.7-5.7c2.9,0.5,5.3,1.9,6.9,4.4c1.3,2,2.5,4.5,1.6,6.5
			s-3.6,0.8-5.4,0.9C266.7,1278.1,262.6,1278,258.4,1278z"/>
		<path class="st15" d="M227,1279.9c0,1.5,0,3,0,4.5c-0.1,3.4-0.1,3.5-3.1,1.7c-1.1-0.7-1.4,0.2-2,0.6c-1.8,1.1-3.7,1.5-5.7,1.4
			c-4.1-0.1-7.5-1.5-7.9-5.9c-0.4-4.6,3-6.2,7-6.8c1.5-0.2,3,0.1,4.5-0.2c1.4-0.2,3.8,1.2,3.8-1.6c0.1-2.1-1.2-3.9-3.4-4.4
			c-2.6-0.6-5.3-0.5-7.8,0.8c-0.9,0.5-2.1,1.6-2.9-0.1c-0.7-1.6,0.9-1.9,1.8-2.4c8.2-4.6,15.6-0.3,15.7,9
			C227,1277.5,227,1278.7,227,1279.9z"/>
		<path class="st15" d="M164,1279.8c0,1.7,0,3.3,0,5c-0.1,3.2-0.2,3.3-3.1,1.3c-1.1-0.8-1.3,0.2-1.9,0.4c-1.2,0.4-2.4,1.2-3.7,1.4
			c-5.2,0.9-9.7-1.7-10.1-5.7c-0.4-4,2.8-6.7,8.5-7c1-0.1,2,0.1,3-0.1c1.4-0.3,3.8,1.2,3.9-1.5c0.1-2.1-1.1-3.9-3.3-4.4
			c-2.5-0.6-4.9-0.5-7.3,0.5c-1,0.4-2.5,2.1-3.4,0.2c-0.9-2.1,1.4-2.3,2.6-2.8c8.6-3.8,14.8,0.3,14.8,9.7
			C164,1277.8,164,1278.8,164,1279.8z"/>
		<path class="st23" d="M282,1276.8c0-2.8,0-5.7,0-8.5c0-1.5,1.4-3.3,2-2.1c2,3.8,3.6,0.9,5.4,0.2c6.2-2.3,12.1,0.9,13,7.4
			c0.5,3.9,0.2,8,0.3,12c0,1.1-0.2,2-1.6,2.1c-1.6,0.1-1.9-0.9-1.9-2.2c0-3.3,0-6.7,0-10c0-3.8-1.3-6.5-5.6-6.8
			c-4.5-0.4-7.6,1.7-8.2,6.1c-0.4,3.3-0.2,6.6-0.3,10c0,1.2,0.5,3-1.6,2.9s-1.5-1.9-1.5-3.1C282,1282.2,282,1279.5,282,1276.8z"/>
		<path class="st23" d="M178.7,1287.9c-3.1,0.2-5.2-0.2-7.2-1.1c-0.9-0.4-2.6-0.6-2-2.3c0.6-1.7,1.8-1,2.8-0.5
			c2.3,1.1,4.8,1.3,7.3,1.1c1.9-0.1,3.9-0.6,4.2-2.8c0.3-2.4-1.7-3-3.5-3.4c-2.1-0.5-4.3-0.8-6.3-1.5c-2.3-0.7-4.1-2.2-4.2-5
			c-0.1-2.9,1.4-4.7,3.9-5.7c3.4-1.3,6.8-1.1,10.2,0.1c1.1,0.4,2.4,0.8,1.7,2.4c-0.5,1.2-1.6,0.9-2.6,0.4c-2.4-1.1-4.9-1.1-7.3-0.6
			c-1.5,0.3-2.8,1.3-2.8,3.1c0,1.6,1.1,2.4,2.5,2.7c1.9,0.5,3.9,0.8,5.8,1.3c3,0.8,5.9,1.8,5.7,5.8s-3,5.2-6.3,5.9
			C179.9,1288.1,178.8,1287.9,178.7,1287.9z"/>
		<path class="st14" d="M200.3,1288c-4,0.1-6.3-1.7-6.6-5.8c-0.2-2.8-0.2-5.6-0.3-8.5c0-1,0.3-2.7-0.1-2.9c-5.3-2.9-0.1-5.5,0.1-8.2
			c0.1-0.9,0.5-1.5,1.5-1.6c0.9,0,1.9,0.2,1.8,1.2c-0.4,3.8,1.8,4,4.6,3.8c1-0.1,2.2-0.1,2.1,1.4c-0.1,1.2-1.2,1.6-2.2,1.4
			c-4.2-0.7-4.6,1.7-4.3,5c0.2,2.5,0.1,5,0.1,7.5c0,2.7,1.3,3.9,4,3.9c1.2,0,3.5-1.6,3.4,1C204.3,1288,201.9,1287.9,200.3,1288z"/>
		<path class="st16" d="M231,1266.1c5.7-0.1,4.9,4.9,6.6,7.6c1.9,3,3,6.6,4.8,10.7c2.6-5.8,4.9-10.8,7.2-15.9
			c0.6-1.4,1.3-3.2,3.1-2.2c1.5,0.8,0,2.3-0.5,3.3c-2.2,5.2-4.6,10.3-6.9,15.5c-0.6,1.3-0.9,2.9-2.9,3c-2.1,0.1-2.4-1.5-3-2.8
			C236.7,1279,233.9,1272.8,231,1266.1z"/>
		<path class="st16" d="M310.1,1276.5c0-2.8,0-5.6,0-8.4c0-1,0.2-2,1.5-2.1c1.4,0,1.6,0.9,1.6,2c0,5.9,0,11.9,0,17.8
			c0,1-0.1,2-1.5,2.1c-1.4,0-1.6-0.9-1.6-2C310,1282.8,310.1,1279.7,310.1,1276.5z"/>
		<path class="st27" d="M318.5,1258.3c-3.6,1.9-5.2,5.1-9.4,4.5C311.6,1260.2,313.3,1257.3,318.5,1258.3z"/>
		<path class="st32" d="M64,1252c-2.1,1.9-3.7,1.6-4.1-1.3c-0.3-2.1,0-4.3,0-6.4c1.4,1.5,0.7,3.4,0.7,5.2
			C60.7,1251.8,61.7,1252.7,64,1252z"/>
		<path class="st33" d="M50.3,851.5c7.3,0,14.7,0.1,22-0.1c2.9-0.1,4.5,0.5,4,3.8c-0.4,2.7,0.7,4.1,3.6,3.7c3.2-0.5,4.3,0.7,4.3,4.1
			c-0.2,9.5,0,19-0.1,28.5c-0.1,7.2-2.2,9.2-9.3,9.2c-13.7,0-27.3,0-41,0c-8,0-10.1-2.1-10.1-10.1c-0.1-11.7,0.1-23.3-0.1-35
			c-0.1-3.4,1.1-4.2,4.3-4.1C35.3,851.7,42.8,851.5,50.3,851.5z"/>
		<path class="st15" d="M135.1,884.4c0-6.1,0-12.2,0-18.3c0-1.2-0.6-2.9,1.5-3.1c2.4-0.2,2,1.8,2,3.2c0,7.5,0,15,0,22.4
			c0,1.2,0.6,2.8-1.4,3.2c-1.6,0.3-2.4-0.8-3.2-1.9c-5.3-6.6-10.7-13.1-17.1-20.9c0,7.2,0.1,13-0.1,18.8c0,1.4,1.1,3.9-1.6,3.9
			c-2.6,0-1.5-2.5-1.6-3.9c-0.1-7.1-0.1-14.3,0-21.4c0-1.2-0.7-2.9,1.2-3.4c1.6-0.4,2.3,0.9,3.2,1.9c5.3,6.6,10.6,13.2,15.9,19.8
			C134.4,884.7,134.8,884.6,135.1,884.4z"/>
		<path class="st22" d="M253,870.9c-1.9,3.5-7.8,4.9-7.2,8.7c0.5,3.4,4.5,6.4,7,9.5c0.6,0.8,1.1,1.6,1.8,2.4c-2.3,1-3.7,0.2-4.9-1.4
			c-1.2-1.6-2.4-3.3-3.8-4.6c-1.3-1.3-1.9-4.3-4.1-3.3c-2.2,1-4.6,2.8-4.6,6c0,1.4,1.1,3.9-1.7,3.7c-2.2-0.2-1.3-2.4-1.3-3.7
			c-0.1-8-0.1-16,0-24c0-1.2-0.6-3,1.5-3s1.5,1.8,1.6,3c0.1,5.4,0,10.9,0,17.7c4-3.6,7.1-6.4,10.2-9.2c1.6-1.4,3-3.3,5.6-2.2
			C253,870.5,253,870.7,253,870.9z"/>
		<path class="st15" d="M156.1,892c-6.5,0-11.1-4.4-11.1-10.9c-0.1-6.7,4.5-11.2,11.3-11.1c6.5,0,11.2,4.5,11.3,10.8
			C167.7,887.3,162.8,892,156.1,892z"/>
		<path class="st16" d="M253,870.9c0-0.2,0-0.4,0-0.6c3.1-1,4.8,0.2,6,3.3c1.7,4.5,3.9,8.8,5.9,13.1c0.1,0.3,0.4,0.5,0.6,0.8
			c3.7-5.6,4.7-12.9,9.4-17.9c0.6,0.3,1.2,0.6,1.7,0.9c-4.1,8.7-8,17.6-12.3,26.2c-1.7,3.4-6.6,4.3-9.6,2.5c-0.9-0.5-1.9-1-1.2-2.2
			c0.5-0.9,1.2-0.9,2.1-0.5c2.5,1.1,4.7,0.9,6.5-1.6c1.8-2.4,1.1-4.5-0.1-6.9c-2.2-4.6-4.2-9.4-6.4-14
			C255.1,872.7,255,870.9,253,870.9z"/>
		<path class="st23" d="M206,880.8c0-2.8,0-5.7,0-8.5c0-0.8-0.3-1.8,0.8-2.1c1-0.3,2-0.3,2.2,1.2c0.4,2.6,1.6,0.7,2.3,0.3
			c8.9-4.3,15.2-0.6,15.4,9.3c0.1,2.5,0.1,5,0,7.5c-0.1,1.3,0.7,3.3-1.6,3.5c-2.4,0.1-1.8-1.9-1.8-3.3c-0.1-3,0-6,0-9
			c0-3.8-1.4-6.5-5.6-6.8c-4.3-0.3-7.3,1.4-8,5.7c-0.5,2.7-0.1,5.7-0.5,8.4c-0.2,1.7,1.6,4.8-1.6,4.7c-2.6,0-1.2-2.9-1.4-4.5
			C205.9,885.1,206,882.9,206,880.8z"/>
		<path class="st16" d="M190.6,870.6c-2.8,6.4-5.7,12.7-8.5,19.1c-0.6,1.3-1.1,2.3-2.8,2.3c-1.8,0-2.1-1.4-2.6-2.5
			c-2.5-5.5-5-10.9-7.3-16.4c-0.3-0.8-1.9-2.1-0.2-2.9c1.4-0.7,2.4,0.2,3,1.7c2.3,5.3,4.7,10.6,7.2,16.1c3.9-6,4.9-13.4,9.6-18.4
			C189.5,869.9,190,870.3,190.6,870.6z"/>
		<path class="st16" d="M198.2,881c0,3,0,5.9,0,8.9c0,1-0.2,2-1.6,2c-1.4,0-1.5-1-1.5-2c0-5.9,0-11.9,0-17.8c0-1,0.2-2,1.6-2
			c1.4,0,1.5,1,1.5,2C198.2,875.1,198.2,878.1,198.2,881z"/>
		<path class="st28" d="M196.3,861c1.4,0,2.4,0.5,2.5,1.9s-0.9,2-2.2,2.1c-1.1,0.1-2-0.6-2.1-1.6C194.3,862,195.1,861.2,196.3,861z"
			/>
		<path class="st13" d="M53.6,1040.6c-4.3-0.3-7.6-1.9-9.4-5.7c-1-2.2-2.4-2.7-4.7-2.7c-4.8,0.1-9.7,0.1-14.5,0
			c-4-0.1-5-1.7-3.4-5.4c0.3-0.7,0.7-1.6,1.3-2.1c9.7-8,11.5-19,11.8-30.6c0.2-8.8,5.7-15.8,13.9-18c8.1-2.1,16.7,1.4,21.1,8.6
			c1.9,3.1,2.4,6.5,2.5,10c0.3,11.2,2.3,21.9,11.6,29.7c1.9,1.6,2.9,3.9,1.9,6.3c-1,2.3-3.5,1.3-5.4,1.4c-2.7,0.1-5.3,0.2-8,0
			c-4.5-0.3-8.7-0.5-11.1,4.8C60,1039.8,56.5,1040.4,53.6,1040.6z"/>
		<path class="st15" d="M222.1,1013.1c0-3,0-6,0-9c0-1.8,1.9-2.8,2.3-1.8c1.5,4,3,0.9,4.5,0.4c3.7-1.2,7.3-1.4,10.3,1.3
			c1.5,1.4,2.3,1.5,4,0.2c3.4-2.8,7.3-3,11.2-1.1c3.8,1.9,4.4,5.5,4.5,9.3c0,3,0,6,0,9c0,1.1,0.2,2.5-1.5,2.6
			c-2.1,0.1-1.9-1.4-1.9-2.7c0-3.2,0-6.3,0-9.5c0-4-1.4-6.8-6-6.8c-4.4,0-6.9,2.4-7.3,6.6c-0.3,3.3-0.1,6.6-0.1,10
			c0,1.1,0.2,2.5-1.6,2.5s-1.5-1.5-1.5-2.6c-0.1-3.3,0.1-6.7-0.1-10c-0.2-3.7-1.7-6.4-6-6.5c-4.2-0.1-6.8,1.9-7.3,5.9
			c-0.5,3.4-0.2,7-0.4,10.4c0,1.1,0.4,2.6-1.4,2.7c-2.2,0.1-1.7-1.6-1.7-2.8C222,1018.4,222,1015.7,222.1,1013.1z"/>
		<path class="st15" d="M126.6,1024c-9,0-15.6-6.2-15.5-14.6c0.1-8.4,6.7-14.5,15.8-14.4c8.8,0.1,15.2,6,15.2,14.4
			C142.1,1018,135.7,1024,126.6,1024z"/>
		<path class="st15" d="M276.5,1024c-6.5,0-11.1-4-11.5-10c-0.4-6.5,3.4-11.4,9.3-12c6.2-0.6,10.9,2.9,12,8.7c0.5,2.4,0,3.4-2.6,3.3
			c-4.2-0.1-8.3-0.1-12.5,0c-0.9,0-2.3,0-2.7,0.5c-0.7,1.1,0.3,2.2,0.9,3.2c2.1,3.3,6.8,4.3,11.2,2.7c1.2-0.4,2.8-2.6,3.7-0.4
			c0.8,2-1.6,2.4-3,3.2C279.8,1024,278.2,1024,276.5,1024z"/>
		<path class="st15" d="M214,1015.7c0,1.3,0,2.7,0,4c0,3.3,0,3.2-3.3,2.2c-0.5-0.2-1.4,0.5-2,0.9c-2.1,1.3-4.4,1.5-6.7,1.2
			c-3.7-0.4-6.5-2.2-6.6-6.1c-0.2-3.8,2.4-5.7,5.8-6.3c1.8-0.3,3.6-0.1,5.4-0.4c1.4-0.2,3.8,1.1,4-1.4c0.2-2.3-1.2-4.2-3.7-4.6
			c-2.7-0.5-5.3-0.3-7.8,1c-0.9,0.5-1.9,1.2-2.6-0.1c-0.9-1.6,0.6-2,1.6-2.5c8.1-4.7,15.8-0.5,15.8,8.7
			C214,1013.3,214,1014.5,214,1015.7z"/>
		<path class="st23" d="M292,1013.1c0-3,0-6,0-9c0-1.7,1.8-2.9,2.2-1.8c1.4,3.8,3,1.2,4.5,0.5c6.5-2.9,12.9,0.3,13.7,7.3
			c0.5,3.8,0.2,7.6,0.3,11.5c0,1.2-0.1,2.4-1.8,2.4c-1.7,0-1.7-1.3-1.7-2.5c0-3.2,0-6.3,0-9.5c0-4-1.3-6.9-5.8-7.1
			c-4.4-0.3-7.5,1.9-8,6.3c-0.4,3.3-0.1,6.6-0.2,10c0,1.1,0.4,2.6-1.3,2.7c-2.1,0.2-1.7-1.5-1.8-2.8
			C292,1018.4,292,1015.8,292,1013.1z"/>
		<path class="st23" d="M169,1012.8c0-2.8,0-5.7,0-8.5c0-1.5,1.4-3.3,2-2.1c2,3.8,3.6,0.9,5.4,0.2c6.2-2.3,12.1,0.9,13,7.4
			c0.5,3.9,0.2,8,0.3,12c0,1.1-0.3,2-1.6,2.1c-1.6,0.1-1.9-0.9-1.9-2.2c0-3.3,0-6.7,0-10c0-3.8-1.3-6.5-5.6-6.8
			c-4.5-0.4-7.6,1.7-8.2,6.1c-0.4,3.3-0.2,6.6-0.3,10c0,1.2,0.5,3-1.6,2.9s-1.4-1.9-1.5-3.1C169,1018.2,169,1015.5,169,1012.8z"/>
		<path class="st16" d="M159.3,1004.8c-4.4,0-7.7,0-11,0c-1,0-2.1-0.1-2.1-1.5c0-1.5,1.2-1.3,2.2-1.3c4.2,0,8.3,0,12.5,0
			c3.1-0.1,3.6,1.1,1.8,3.4c-3.9,4.9-7.8,9.9-12.5,15.8c3.9,0,6.9-0.1,10,0c1.3,0.1,3.7-0.8,3.7,1.3c0,2.7-2.5,1.4-3.9,1.5
			c-3.5,0.2-7,0.1-10.5,0c-1.1,0-2.5,0.6-3.2-0.7c-0.8-1.5,0.5-2.5,1.3-3.5C151.1,1015.1,154.8,1010.5,159.3,1004.8z"/>
		<path class="st16" d="M320.1,1012.6c0-2.8,0-5.6,0-8.4c0-1,0.1-2,1.5-2.1s1.6,0.9,1.6,1.9c0,5.9,0,11.9,0,17.8
			c0,1-0.1,2.1-1.5,2.1c-1.8,0-1.6-1.3-1.6-2.4C320,1018.5,320,1015.6,320.1,1012.6z"/>
		<path class="st27" d="M202.5,998.8c3.3-2.4,4.8-5.8,9.6-4.4C209,996.2,207.4,999.3,202.5,998.8z"/>
		<path class="st27" d="M319.7,998.6c2.2-2.2,3.7-5.4,8-4.3C325.2,996.6,323.2,999,319.7,998.6z"/>
		<path class="st0" d="M814.8,14c7,0.2,13.3,1.9,19.3,5.2c3.2,1.7,4,3.6,1.4,6.6c-5.9,7.2-11.8,14.5-17.5,21.8
			c-2.1,2.6-3.7,2.8-5.9,0.1c-5.9-7.5-11.8-14.9-17.8-22.2c-2.1-2.6-1.6-4.3,1.2-5.9C801.6,16,808,14.2,814.8,14z"/>
		<path class="st0" d="M880,33.3c0,4.7-0.1,9.3,0,14c0.1,2.8-1.1,3.8-3.8,3.8c-9.1-0.1-18.3,0-27.4,0c-1.3,0-2.8,0.2-3.5-1.3
			c-0.6-1.5,0.6-2.5,1.5-3.4c9.5-9.5,19-19.1,28.6-28.6c0.9-0.9,1.9-2.1,3.4-1.4c1.5,0.7,1.2,2.2,1.2,3.5
			C880,24.3,880,28.8,880,33.3z"/>
		<path class="st0" d="M925,34c0,4.3-0.1,8.6,0,13c0.1,2.6-0.7,4.1-3.6,4c-5-0.1-10-0.1-15,0c-2.6,0-3.5-1.2-3.5-3.7
			c0.1-9,0-18,0-26.9c0-0.7,0.1-1.3,0.3-2c0.9-2.8,5.9,0.4,6.3-4.7c0.1-1.8,5.6-1.3,8.1-0.4c1.9,0.7,2.4,3.6,5.7,4.2
			c3.2,0.6,1.3,4.9,1.6,7.5C925.2,28,925,31,925,34z"/>
		<path class="st34" d="M1025.2,29.9c0.9,0,1.7,0.1,2.5,0c5.8-0.7,8.6,1.1,9.7,6.5c1,4.9-1.5,9.5-5.8,10.7c-5,1.3-9.2-1-10.9-6.1
			c-3-9.1,1.7-19.1,9.7-20.2c1.3-0.2,3.1-1.1,3.5,1.3c0.3,1.9-1.2,2-2.5,2.4C1027.3,25.8,1027.4,25.9,1025.2,29.9z"/>
		<path class="st35" d="M1005.2,43.3c3.8,0,6.4,0,9.1,0c1.5,0,2.6,0.4,2.5,2.2c-0.1,1.9-1.5,1.5-2.6,1.5c-4,0.1-8,0.1-12,0
			c-1.1,0-2.5,0.6-3.1-0.7c-0.7-1.5,0.1-2.9,1.2-4c2.4-2.5,4.8-5.1,7.1-7.7c1.2-1.4,2.3-2.8,3.1-4.5c1.1-2.2,0.8-4.4-1.5-5.6
			c-2.2-1.2-4.5-0.6-5.4,1.8c-0.9,2.3-2.5,3.7-4.3,2.2c-1.9-1.5-0.2-3.6,1-5.1c2.7-3.6,9-4.3,12.7-1.6c3.4,2.5,3.9,6.8,0.9,11.1
			C1011.5,36.2,1008.6,39.2,1005.2,43.3z"/>
		<path class="st36" d="M980,34c0,3.5,0,7,0,10.5c0,1.5-0.2,2.5-2.1,2.6c-1.9,0-2.7-0.6-2.7-2.6c0.1-4.8-0.1-9.6,0.1-14.4
			c0.1-2.8-0.5-4.1-3.5-2.8c-0.8,0.3-2.2,1.7-2.7-0.4c-0.2-1.1-0.3-2.4,1.1-2.9c0.3-0.1,0.6-0.3,0.9-0.4c8.5-4.2,8.8-4,8.8,5.6
			C980,30.7,980,32.4,980,34z"/>
		<path class="st36" d="M954.2,26.4c-2.3,0.6-4,1-5.8,1.4c-1.6-4.9,2.7-4.6,5-5.5c5.5-2.3,5.6-2.1,5.6,3.7c0,6,0,12,0,17.9
			c0,1.4,0.4,3-2,3.1c-2.3,0.1-2.7-1.1-2.7-3C954.3,38.2,954.2,32.5,954.2,26.4z"/>
		<path class="st37" d="M992.1,42.2c1.5,0.3,2.6,1.1,2.5,2.6c0,1.8-1.3,2.6-3.1,2.4c-1.5-0.2-2.5-1.1-2.2-2.7
			C989.6,43,990.6,42.3,992.1,42.2z"/>
		<path class="st37" d="M994.7,30.1c-0.4,1.5-1.3,2.2-2.8,2.1s-2.6-1-2.5-2.5c0.1-1.7,1.3-2.8,3-2.5
			C993.8,27.5,994.7,28.5,994.7,30.1z"/>
		<path class="st38" d="M199.5,482.9c-2.1-0.3-4.7-1.1-4.4-3.9c0.5-5,4.8-3.9,8.1-4c1.5-0.1,3.4-0.7,3.4,2.1
			C206.5,480.3,203.5,483.1,199.5,482.9z"/>
		<path class="st38" d="M281.3,475c1.2,0.8,4-1.6,4.3,2c0.2,3.2-2.8,6-6.5,6c-2.5,0-4.6-0.9-5-3.7C273.7,476.4,276,475.1,281.3,475z
			"/>
		<path class="st9" d="M53.7,1115c6.7,0.1,12.3,5.9,12.2,12.6c-0.1,6.8-5.8,12.3-12.5,12.2c-6.7-0.1-12.4-5.9-12.3-12.5
			C41.2,1120.6,47.1,1114.9,53.7,1115z"/>
		<path class="st39" d="M178.7,1143.2c-0.8,0-1.7,0.2-2.5,0c-1.6-0.4-4.3,1.2-4.6-1.1c-0.3-2.1,1.9-3.9,4-4.6
			c3.1-1.1,6.2-0.9,8.8,1.6c0.9,0.9,2.1,2,1.5,3.4c-0.6,1.3-2,0.7-3.1,0.8C181.3,1143.3,180,1143.2,178.7,1143.2z"/>
		<path class="st39" d="M308.6,747.2c-0.8,0-1.7,0.2-2.5,0c-1.6-0.4-4.2,1.2-4.6-1.2c-0.3-1.9,1.7-3.4,3.5-4.4
			c1.4-0.8,2.9-0.7,4.4-0.7c3.1,0.2,6.2,1.6,6.2,4.6c-0.1,3.3-3.6,1.1-5.5,1.7C309.7,747.3,309.1,747.2,308.6,747.2z"/>
		<path class="st40" d="M162,749.9c1.5,0.9,5-1.5,4.7,2.3s-3.4,5-6.9,5c-2.5,0-5.3-0.3-5.2-3.3C154.8,749.1,159,750.4,162,749.9z"/>
		<path class="st40" d="M235.8,749.9c1.5,1,4.9-1.7,4.8,2.1c0,3.9-3.1,5.1-6.6,5.2c-2.6,0-5.7-0.3-5.4-3.6
			C228.9,749.4,232.8,750.3,235.8,749.9z"/>
		<path class="st31" d="M52.8,1432.2c2.3,2.7,1.5,4.3-1.9,4.3c-5.5,0.1-11,0.2-16.4-0.2c-6.7-0.5-11-5.1-11.1-11.8
			c-0.2-13.6-0.2-27.3,0-40.9c0.1-6.7,4.3-11.4,11-12c5.6-0.5,11.3-0.3,16.9-0.3c1.6,0,3.2,0.5,2.9,2.5c-0.2,1.9-1.9,1.5-3.2,1.5
			c-4.7,0-9.3-0.1-14,0.1c-6.8,0.3-9.6,3.2-9.6,10c-0.1,12.5-0.1,24.9,0,37.4c0,6.6,2.8,9.4,9.4,9.5
			C42.2,1432.4,47.5,1432.2,52.8,1432.2C52.9,1432.2,52.8,1432.2,52.8,1432.2z"/>
		<path class="st0" d="M126.5,1417.2c-7,0-12.3-5-12.2-11.7c0-6.7,5.3-11.6,12.4-11.6s12.2,5,12.2,11.7
			C138.8,1412.3,133.6,1417.2,126.5,1417.2z"/>
		<path class="st0" d="M157.1,1400.9c4.8,0,8,3.2,8,8.1s-3.2,8.2-7.9,8.2s-8.1-3.4-8.2-8.1C149,1404.4,152.4,1400.9,157.1,1400.9z"
			/>
		<path class="st41" d="M74.6,1406c-9.9,0-19.8,0-29.7,0c-1.2,0-2.3,0-3.5,0c-1.7,0-3.7,0.1-3.6-2.3c0.1-2,2.1-1.8,3.5-1.8
			c11.1,0,22.3,0,33.8,0c-1-3.4-3.8-4.8-5.6-7c-1-1.2-2.3-2.4-0.9-3.8c1.3-1.2,2.8-0.3,3.9,0.9c3.1,3.1,6.1,6.1,9.2,9.2
			c1.7,1.7,1.7,3.5,0,5.3c-3.3,3.3-6.6,6.6-9.9,9.9c-0.9,0.9-2.2,2-3.4,0.5c-0.9-1.2-0.4-2.5,0.6-3.6c2-1.9,4.1-3.8,6.2-5.7
			C75.1,1407.1,74.8,1406.6,74.6,1406z"/>
		<path class="st40" d="M224.2,1409.9c1.5,0.8,4.6-1.4,4.5,2c-0.1,3.9-3.1,5.2-6.6,5.2c-2.6,0.1-5.7-0.2-5.5-3.5
			C217,1409.1,221.2,1410.4,224.2,1409.9z"/>
		<path class="st9" d="M54.6,628.2c-9.9,1.8-18,0.5-20-11.5c-0.2-1.2-1.2-2.4-2.1-3.4c-1.5-1.8-2.5-4-1.1-5.9s3.7-0.6,5.6-0.1
			c2.3,0.5,4.2,2,5.9,3.7c2.6,2.6,3.7,1.9,4.3-1.6c0.6-3.7,2.6-6.8,5.4-9.4c3-2.8,5.6-1.8,6.5,2.3c0.4,1.6,0.5,3.3,1,4.9
			c1.7,5.8,3.6,6.9,9.5,6c2.1-0.3,4.9-1,6,1c1.2,2.1-0.2,4.4-1.3,6.8c-3.3,6.8-8.5,8.3-15.2,7.3C57.6,628,56.1,628.2,54.6,628.2z"/>
		<path class="st42" d="M54.3,631.1c3.8,0,7.6,0,11.5,0c0.9,0,2.1-0.3,2.3,1.2c0.1,1.2-0.7,1.8-1.8,1.8c-8.1,0-16.3,0-24.4,0
			c-1.1,0-2-0.5-1.8-1.8c0.2-1.4,1.4-1.1,2.3-1.1C46.3,631.1,50.3,631.1,54.3,631.1z"/>
		<path class="st43" d="M86.8,616.4c-0.4,2.5-1.5,4.2-4.1,4.2c-2.2,0-3.7-1.4-3.8-3.7c-0.1-2.6,1.4-4,3.9-4.1
			C85.3,612.8,86.2,614.5,86.8,616.4z"/>
		<path class="st44" d="M65.2,593.7c-0.1,2.3-1.1,4-3.4,4.2c-2.5,0.2-4.2-1.3-4.3-3.7c-0.1-2.5,1.5-4.1,4-4.1
			C63.7,590,64.9,591.5,65.2,593.7z"/>
		<path class="st45" d="M28.2,607.6c-0.3,2.6-1.9,3.9-4.3,3.7c-2.3-0.1-3.6-1.8-3.5-4s1.5-3.7,3.8-3.7
			C26.7,603.7,28,605.2,28.2,607.6z"/>
		<path class="st39" d="M199.7,615.2c-0.8,0-1.7,0.2-2.5,0c-1.6-0.4-4.3,1.2-4.6-1.1c-0.3-2.1,1.9-3.8,4-4.6
			c1.3-0.5,2.9-0.6,4.4-0.4c3.1,0.3,6.1,1.9,5.8,5c-0.3,2.6-3.6,0.8-5.5,1.3C200.7,615.3,200.2,615.2,199.7,615.2z"/>
		<path class="st0" d="M170.1,617.3c-0.1,4.8-3.5,8-8.3,7.8c-4.6-0.2-8-3.8-7.8-8.5s3.7-7.9,8.5-7.8
			C167.2,609,170.3,612.4,170.1,617.3z"/>
		<path class="st0" d="M265.1,617.1c0,4.9-3.3,8.1-8.1,8c-4.7-0.1-8.1-3.6-8-8.2c0.1-4.7,3.5-8.1,8.2-8
			C262,608.9,265.2,612.2,265.1,617.1z"/>
		<path class="st9" d="M36.9,1263.5c0-2.7-1.7-4.1-3.4-5.5c-2.8-2.4-0.8-3.9,0.8-5.6c1.7-1.7,3-3,5.1-0.4c1.7,2,3.6,4.2,6.7,3.1
			c3.4-1.2,3.4-4.2,3.2-7.1c-0.3-3.6,2-3.4,4.5-3.5c2.8-0.1,4,0.8,3.8,3.7c-0.2,2.7-0.2,5.6,2.9,6.8c3,1.2,5.2-0.8,6.8-2.8
			c2.6-3.2,3.9-1.1,5.9,0.5c2.4,2.1,2.2,3.7-0.1,5.6c-2,1.6-3.7,3.5-2.5,6.4c1.2,3.2,4,3.3,6.6,3.1c3.2-0.3,3.9,1,3.9,4
			s-0.5,4.7-4.1,4.3c-2.5-0.3-5.1-0.1-6.4,2.7c-1.4,3.1,0.4,5.1,2.5,6.8c2.4,2,2.1,3.6-0.1,5.6c-2,1.8-3.5,3.5-5.9,0.3
			c-1.6-2.2-3.7-4-6.8-2.6c-2.8,1.3-3,3.8-2.7,6.4c0.3,3-0.8,4.1-3.9,4.1c-3.1,0-4.8-0.7-4.4-4.1c0.3-2.6,0-5.1-2.8-6.4
			c-3.1-1.4-5.2,0.4-6.8,2.6c-2.3,3.2-3.9,1.4-5.9-0.4c-2.3-2.1-2.4-3.7,0-5.6c2-1.6,3.7-3.5,2.7-6.4c-1.2-3.2-3.9-3.4-6.6-3.2
			c-3.1,0.3-4-0.8-4-3.9c0-3,0.5-4.8,4.1-4.4C33.4,1268.3,36.4,1267.5,36.9,1263.5z"/>
		<path class="st39" d="M258,1275.2c1.3-4,3.3-5.9,6.6-6.3c3-0.3,5.6,0.3,7.5,2.9c1.4,1.9,1.5,3.4-1.5,3.4
			C266.6,1275.2,262.6,1275.2,258,1275.2z"/>
		<path class="st40" d="M218.9,1277.9c1.4,0.9,4.9-1.7,4.8,2.1c-0.1,3.9-3.2,5.1-6.7,5.1c-2.7,0-5.7-0.4-5.4-3.6
			C212,1277.3,215.9,1278.3,218.9,1277.9z"/>
		<path class="st40" d="M155.9,1277.8c1.6,1,5.1-1.5,4.8,2.4c-0.3,3.8-3.4,5-6.9,5c-2.5,0-5.3-0.3-5.2-3.3
			C148.8,1277.1,153,1278.6,155.9,1277.8z"/>
		<path class="st46" d="M32,896c-3.3,0.6-4.1-1.6-4.1-4.1c-0.1-11,0-22-0.1-32.9c0-2.3,0.8-3.2,3.2-3.2c12.6,0.1,25.3,0.1,37.9,0
			c2.3,0,3.2,0.7,3.2,3.1c0,12,0.2,23.9,0.3,35.9c0,2-1.2,1.5-2.4,1.2c-0.3-0.5-0.4-1-0.5-1.6c-0.1-10,1.8-20.1,0.1-30.1
			c-0.9-5.3-0.9-5.8-6.5-5.8c-8.6-0.1-17.3-0.1-25.9,0c-6,0-8,2.4-7.1,8.3c0.1,0.7,0.8-0.5,1.4-0.6c11.9-1.2,23.9-0.6,35.8-0.3
			c3.8,4,4.1,7.2,1.2,12.6c-4.2,2-8.8,0.1-13.1,1.7c4.5,0,9.3,2.1,13.3-1.9c2,0.2,2.1,0.5,1.3,4.1c-0.2,0.4-0.5,0.8-0.9,1.1
			c-1.6,1-4.1,0.1-5.1,2.3c-2.9,1.1-6.1,0-9,1.2c3.8,1,7.5,1.5,10.3-2.2c0.6-0.1,1,0.2,1.3,0.7c0.5,4.9-0.8,7-5.8,6.7
			c-9.1-0.6-18.2,0.9-27.2,0c-1.2-0.2-2.4-0.7-3.3-1.7c-0.6,0.9,0.1,1.7,0.4,2.6c0.5,0.7,1.1,1.2,1.6,1.9
			C32.4,895.4,32.3,895.7,32,896z"/>
		<path class="st47" d="M70,895c0,0.3,0,0.7,0,1c-12.7,0-25.3,0-38,0c0-0.3,0-0.7,0-1c1.1-1.2,2.6-1.5,4.1-1.5
			c10.1-0.2,20.3-0.2,30.4,0c1,0,2,0.3,2.9,0.8C69.5,894.6,69.8,894.8,70,895z"/>
		<path class="st0" d="M164.1,881c0,4.9-3.2,8.2-7.9,8.2s-8.2-3.4-8.2-8.1c0-4.7,3.4-8.1,8.1-8.2C160.9,872.8,164.1,876,164.1,881z"
			/>
		<path class="st43" d="M30.9,1023.8c6.5-8.8,8.4-18.9,8.5-29.6c0-6.3,4.1-11.3,9.7-13.1c5.9-1.9,10.9-0.4,15,4.6
			c0.4,0.5,0.3,1-0.1,1.5c-2.2,0.5-3.7-1.3-5.4-2.1c-7.3-3.4-15.4,0.6-16,8.6c-0.7,9.9-2.2,19.5-6.9,28.4c-1.7,3.3,1.6,2.5,3,2.5
			c9.8,0.1,19.7,0.1,29.5,0.1c2.2,0,4.3,0,6.4-0.9c0.5-0.2,1-0.1,1.5,0.2l0,0c1.1,2.6,0.2,3.7-2.6,3.7c-13.4,0-26.8,0-40.1,0
			C30.6,1027.5,29.8,1026.3,30.9,1023.8z"/>
		<path class="st48" d="M76.2,1023.9c-0.4,0.1-0.8,0.1-1.2,0.2c-3.7-0.3-4.6-3.5-5.7-6.1c-2.7-6.1-4.1-12.6-4.4-19.2
			c-0.1-3.9-1.6-7.7-0.9-11.7c0.1-0.5,0.1-0.9,0.2-1.4c3,2.4,3.6,5.8,3.6,9.3C67.6,1005.5,69.9,1015.2,76.2,1023.9z"/>
		<path class="st48" d="M30.9,1023.8c-0.1,2.2,0.9,3.2,3.2,3.2c12.9-0.1,25.8-0.1,38.6,0c2.3,0,3.3-0.9,3.3-3.2
			c1.3,0.8,2.4,1.6,2.6,3.5c-16.9,0-33.6,0-50.5,0C28.5,1025.4,29.7,1024.6,30.9,1023.8z"/>
		<path class="st49" d="M48.7,1032.2c3.2,0,6.3,0,9.4,0C55.4,1037.2,51.9,1037.2,48.7,1032.2z"/>
		<path class="st0" d="M126.7,997.8c7.1,0,12.2,5,12.2,11.7s-5.2,11.6-12.3,11.6c-7,0-12.3-5-12.2-11.7
			C114.4,1002.8,119.6,997.8,126.7,997.8z"/>
		<path class="st39" d="M275.6,1011.2c-0.8,0-1.7,0.2-2.5,0c-1.6-0.4-4.2,1.2-4.6-1.2c-0.3-1.9,1.7-3.4,3.5-4.4
			c1.4-0.8,2.9-0.7,4.4-0.7c3.1,0.2,6.2,1.6,6.2,4.6c-0.1,3.3-3.6,1.1-5.5,1.7C276.7,1011.3,276.1,1011.2,275.6,1011.2z"/>
		<path class="st40" d="M203.6,1021.1c-2.5,0-4.9-0.5-5.1-3.5c-0.1-2.8,2.3-3.3,4.5-3.6c0.7-0.1,1.4-0.2,2,0
			c1.9,0.5,5.3-1.6,5.6,1.9c0.2,3.6-2.7,5-6,5.2C204.3,1021.2,203.9,1021.1,203.6,1021.1z"/>
		<path class="st50" d="M918.7,23.1c-1.3,2.9-2.5,5.6-3.8,8.5c1.8,0.2,3.2,0.4,5,0.6c-2.4,4.3-5.1,8.1-8.2,11.9
			c-1.3-1.8,0.2-3,0.3-4.4c0.2-2.1,2.3-3.8-1.4-6c-2.4-1.4,0.3-6.1,0.6-9.3c0.3-2.3,2.7-1.2,4.2-1.4C916.4,22.8,917.4,23,918.7,23.1
			z"/>
		<path class="st51" d="M1033.1,38.5c-0.2,2.7-1.1,5.2-4.3,5c-3.3-0.2-4-2.9-4.1-5.8c-0.1-2.9,1.6-4.5,4.2-4.4
			C1032.1,33.4,1032.9,35.8,1033.1,38.5z"/>
		<path class="st52" d="M53.5,1282.3c-5.7,0-10.5-4.9-10.3-10.5c0.2-5.5,4.9-9.9,10.5-9.9c5.5,0,10.2,4.6,10.3,10
			C64.1,1277.6,59.3,1282.3,53.5,1282.3z"/>
		<path class="st47" d="M31.2,866.7c-0.3,1.5,0,3.4-1.8,4.3c-0.1-0.2-0.3-0.3-0.3-0.4c-0.2-16.7-1.9-13.3,12.5-13.6
			c8.3-0.2,16.6,0,24.9,0c2.4,0,4.4,0.4,4.4,3.4c0,11,0,21.9-0.1,32.9c0,0.6-0.6,1.1-0.9,1.7l0,0c-2.3-3.8-1.5-7.9-1-12
			c0.6-1.6,2.1-3.3-0.2-4.9l0,0c1.7-3.8-0.2-7.6,0-11.5c-1.5-1.8-3.4-2.4-5.7-2.3c-8.8,0.1-17.5,0.1-26.3,0
			C34.6,864.3,32.6,864.8,31.2,866.7z"/>
		<path class="st53" d="M32,871c4.7-1.5,9.5-0.4,14.2-0.6c1.9-0.1,2,1.3,2,2.7c-0.1,5-0.2,9.9-0.3,14.9c-4.6,1.1-9.2,0.2-13.8,0.5
			c-1.9,0.1-2.7-0.8-2.6-2.6C31.8,880.9,31,875.9,32,871z"/>
		<path class="st54" d="M69,883c2.1,3.9,0.5,8,1,12c-12.7,0-25.3,0-38,0c-0.8,0-1.6-0.2-2-1c-0.5-1.8-1.3-3.8,2-3
			c5.8-0.6,11.6,0.6,17.6-1.2c2.5-0.8,6.8,1.1,10.4,1.2c4.3,0.1,6.7-1.3,6-6.1C65.7,882.4,68.4,884.3,69,883L69,883z"/>
		<path class="st33" d="M31.2,866.7c-0.4-2.5,0.2-3.9,3.3-3.9c10.4,0.2,20.8,0.2,31.2,0c3.2-0.1,3.6,1.4,3.2,3.9
			C56.3,867.2,43.7,867.3,31.2,866.7z"/>
		<path class="st55" d="M68.8,878.1c0.1,2.2-0.1,3.9-3,3.8c-3.8-0.2-7.6-0.1-11.4,0c-1.5,0-2.6-0.3-2.6-2.2c0-2,1.4-2,2.7-2
			C59.3,877.9,64.1,877.3,68.8,878.1C68.9,878.2,68.8,878.1,68.8,878.1z"/>
		<path class="st56" d="M60.7,870.3c2,0,4,0,6,0c1.4,0,2.2,0.6,2.2,2.1c0,1.6-0.9,2-2.2,2c-4.3,0-8.6,0-12.9,0
			c-1.2,0-1.8-0.6-1.9-1.8c0-1.3,0.4-2.3,1.9-2.3C56,870.3,58.4,870.3,60.7,870.3L60.7,870.3z"/>
		<path class="st57" d="M64.8,885.2c0.7,2.9-0.1,4.3-3.4,4c-2.4-0.2-4.9-0.1-7.4-0.1c-1.3,0-2.2-0.4-2.2-2c0-1.5,0.8-2,2.1-2
			C57.6,885.2,61.2,885.2,64.8,885.2L64.8,885.2z"/>
		<path class="st33" d="M32,871c0,4.3,0.2,8.7,0,13c-0.1,3,0.9,4.2,4,4.1c4-0.2,8-0.1,12-0.1c-5.1,2.6-10.4,0.8-15.6,0.9
			c-0.3,0-1-0.9-1-1.4C31.5,882,30.2,876.4,32,871z"/>
		<path class="st47" d="M32,891c-2,0.1-2,1.6-2,3c-1.6-1.4-0.8-3.2-0.9-5C30.5,889.1,31.2,890.2,32,891z"/>
		<path class="st47" d="M69,883c-1,0.7-2,1.3-3,2c-0.4,0.1-0.8,0.1-1.2,0.2l0,0C64.5,881.1,67.7,883.9,69,883z"/>
		<path class="st9" d="M63.9,987.1c3.5,5.7,1.4,12.2,3,18.2c1.7,6.7,2.6,13.7,8,18.7c-0.2,2.2-1.9,2-3.3,2c-12,0-24-0.1-35.9,0
			c-4.2,0-3.4-1.5-1.7-3.9c4.9-7.4,6.7-15.8,7-24.5c0.2-5.9,1.2-10.9,6.8-13.9C54,980.4,59.2,982.8,63.9,987.1z"/>
		<path class="st40" d="M61,1272c0,4.2-3.5,7.7-7.6,7.5c-3.9-0.1-7.2-3.5-7.2-7.4c0-4.2,3.4-7.6,7.6-7.5
			C57.8,1264.8,60.9,1268,61,1272z"/>
		<path class="st58" d="M67.3,865.6c-11.5,0-23,0-34.6,0c0-0.3,0-0.7,0-1c11.5,0,23,0,34.6,0C67.3,864.9,67.3,865.2,67.3,865.6z"/>
	</g>
</g>
</svg>
