<svg id="Layer" xmlns="http://www.w3.org/2000/svg" viewBox="0 0 414 414"><title>Settings</title><path d="M349.63,171.67H319.88a11.43,11.43,0,0,1-8.08-19.5l21-21a16.37,16.37,0,0,0,0-23.16L306,81.17a16.75,16.75,0,0,0-23.16,0l-21,21a11.43,11.43,0,0,1-19.5-8.08V64.37A16.38,16.38,0,0,0,226,48H188a16.38,16.38,0,0,0-16.37,16.37V94.12a11.43,11.43,0,0,1-19.5,8.08l-21-21a16.75,16.75,0,0,0-23.16,0L81.17,108a16.37,16.37,0,0,0,0,23.16l21,21a11.43,11.43,0,0,1-8.08,19.5H64.37A16.38,16.38,0,0,0,48,188V226a16.38,16.38,0,0,0,16.37,16.37H94.12a11.43,11.43,0,0,1,8.08,19.5l-21,21a16.37,16.37,0,0,0,0,23.16L108,332.83a16.75,16.75,0,0,0,23.16,0l21-21a11.43,11.43,0,0,1,19.5,8.08v29.75A16.38,16.38,0,0,0,188,366H226a16.39,16.39,0,0,0,16.37-16.37V319.88a11.43,11.43,0,0,1,19.5-8.08l21,21a16.77,16.77,0,0,0,23.17,0L332.83,306a16.39,16.39,0,0,0,0-23.16l-21-21a11.43,11.43,0,0,1,8.09-19.5h29.75A16.38,16.38,0,0,0,366,226V188A16.38,16.38,0,0,0,349.63,171.67ZM354.22,226a4.6,4.6,0,0,1-4.59,4.6H319.88a23.2,23.2,0,0,0-16.41,39.6l21,21a4.61,4.61,0,0,1,0,6.5l-26.82,26.82a4.6,4.6,0,0,1-6.5,0l-21-21a23.2,23.2,0,0,0-39.6,16.41v29.75a4.6,4.6,0,0,1-4.6,4.59H188a4.6,4.6,0,0,1-4.6-4.59V319.88a22.83,22.83,0,0,0-14.32-21.44,23.47,23.47,0,0,0-9-1.83,22.85,22.85,0,0,0-16.25,6.86l-21,21a4.6,4.6,0,0,1-6.5,0L89.49,297.69a4.61,4.61,0,0,1,0-6.5l21-21a23.19,23.19,0,0,0-16.41-39.6H64.37a4.6,4.6,0,0,1-4.59-4.6V188a4.6,4.6,0,0,1,4.59-4.6H94.12a23.2,23.2,0,0,0,16.41-39.6l-21-21a4.61,4.61,0,0,1,0-6.5l26.82-26.82a4.61,4.61,0,0,1,6.5,0l21,21a23.2,23.2,0,0,0,39.6-16.4V64.37a4.6,4.6,0,0,1,4.6-4.59H226a4.6,4.6,0,0,1,4.6,4.59V94.12a23.2,23.2,0,0,0,39.6,16.41l21-21a4.59,4.59,0,0,1,6.5,0l26.82,26.81a4.61,4.61,0,0,1,0,6.5l-21,21a23.2,23.2,0,0,0,16.41,39.61h29.75a4.59,4.59,0,0,1,4.59,4.59Z"/><path d="M207,154a53,53,0,1,0,53,53A53.05,53.05,0,0,0,207,154Zm0,94.22A41.22,41.22,0,1,1,248.22,207,41.27,41.27,0,0,1,207,248.22Z"/></svg>