<svg id="Layer" xmlns="http://www.w3.org/2000/svg" viewBox="0 0 414 414"><title>Transactions</title><path d="M334.23,63.87v47.79A159,159,0,0,0,55.83,256.52a5.3,5.3,0,0,0,5,3.66,5.19,5.19,0,0,0,1.65-.27,5.3,5.3,0,0,0,3.38-6.69,148.46,148.46,0,0,1,262.93-131H270.61v10.6h74.22V63.87Z"/><path d="M358.18,157.48a5.31,5.31,0,0,0-10.08,3.3,148.46,148.46,0,0,1-262.93,131h58.22v-10.6H69.17v68.91h10.6V302.34A159,159,0,0,0,358.18,157.48Z"/><path d="M262.92,299.6A5.45,5.45,0,0,1,264.6,304a5.8,5.8,0,0,1-1.68,4.47,6.76,6.76,0,0,1-4.81,1.57h-102a7.21,7.21,0,0,1-4.93-1.57,5.36,5.36,0,0,1-1.79-4.25,9,9,0,0,1,2-5.36l93.49-134.65H155.67a6.09,6.09,0,0,1-4.36-1.57,5.52,5.52,0,0,1-1.68-4.25,5.81,5.81,0,0,1,1.68-4.47,6.14,6.14,0,0,1,4.36-1.57h100a6.91,6.91,0,0,1,4.92,1.68,5.71,5.71,0,0,1,1.79,4.36,8.66,8.66,0,0,1-1.79,5.15L166.85,298.15h91.26A7.13,7.13,0,0,1,262.92,299.6ZM198.84,136.66l-20.58-22.15a6.44,6.44,0,0,1-2-4.69,5.72,5.72,0,0,1,5.59-5.6,5.71,5.71,0,0,1,4.47,2L206,128.83l19.69-22.59a5.94,5.94,0,0,1,4.47-2.24,5.34,5.34,0,0,1,3.91,1.68,5.63,5.63,0,0,1,1.68,4.14,7.55,7.55,0,0,1-2,4.69l-20.58,22.15A9.57,9.57,0,0,1,206,140,10,10,0,0,1,198.84,136.66Z"/></svg>