<svg id="Vrstva_1" data-name="Vrstva 1" xmlns="http://www.w3.org/2000/svg" viewBox="0 0 596 546"><defs><style>.cls-1{fill:#fff;}</style></defs><title>ZolikyLogoEmail</title><path class="cls-1" d="M390.5,85a27.64,27.64,0,0,1,24,13.9L507,259.1a28.12,28.12,0,0,1,0,27.8L414.5,447.1a27.76,27.76,0,0,1-24,13.9h-185a27.92,27.92,0,0,1-24.1-13.9L88.9,286.9a28.12,28.12,0,0,1,0-27.8L181.4,98.9A27.8,27.8,0,0,1,205.5,85h185m0-10h-185a37.67,37.67,0,0,0-32.7,18.9L80.3,254.1a38.06,38.06,0,0,0,0,37.8l92.5,160.2A37.8,37.8,0,0,0,205.5,471h185a37.67,37.67,0,0,0,32.7-18.9l92.5-160.2a38.06,38.06,0,0,0,0-37.8L423.2,93.9A37.67,37.67,0,0,0,390.5,75Z"/><path class="cls-1" d="M377.06,374.4c4.3,3.4,6.5,8.9,6.5,16.3q0,11.4-6.3,16.8c-4.2,3.5-10.9,5.3-19.9,5.3H236.56c-7.4,0-13.3-2.2-17.6-6.6a22.77,22.77,0,0,1-6.5-16.6c0-6.7,2.3-13.2,6.9-19.6l93-126.5h-73c-9.1,0-15.8-1.8-20.1-5.3s-6.5-8.9-6.6-16.1c0-7.7,2.2-13.2,6.5-16.8s11-5.3,20.1-5.2h115.9c7.3,0,13,2.2,17.4,6.5a22.47,22.47,0,0,1,6.5,16.4c0,6.9-2.3,13.5-7,19.9l-93,126.5h78.2C366.16,369.3,372.76,371,377.06,374.4ZM278.76,177l-22.9-17.8c-4-3.4-6-7.2-6-11.5a13.78,13.78,0,0,1,4.5-10.1,15,15,0,0,1,10.6-4.4,17.49,17.49,0,0,1,12,5.1l19,17.2,19-17.2a17.11,17.11,0,0,1,12.1-5.1,15,15,0,0,1,10.6,4.4,13.58,13.58,0,0,1,4.5,10.1c0,4.4-2,8.3-6,11.5l-23,17.8a26.39,26.39,0,0,1-34.4,0Z"/></svg>