<?xml version="1.0" encoding="utf-8"?>
<!-- Generator: Adobe Illustrator 22.1.0, SVG Export Plug-In . SVG Version: 6.00 Build 0)  -->
<svg version="1.1" id="Vrstva_1" xmlns="http://www.w3.org/2000/svg" xmlns:xlink="http://www.w3.org/1999/xlink" x="0px" y="0px"
	 viewBox="0 0 500 500" style="enable-background:new 0 0 500 500;" xml:space="preserve">
<style type="text/css">
	.st0{fill:#2196F3;}
	.st1{fill:#FFFFFF;}
</style>
<g>
	<g id="Layer">
		
			<image style="overflow:visible;opacity:0.79;enable-background:new    ;" width="596" height="546" xlink:href="3707835B.png"  transform="matrix(1 0 0 1 -48 -22.5)">
		</image>
		<path class="st0" d="M157.5,443.5c-11.7,0-22.5-6.3-28.4-16.4L36.6,266.9c-5.8-10.1-5.8-22.6,0-32.8l92.5-160.2
			c5.9-10.1,16.7-16.4,28.4-16.4h185c11.7,0,22.5,6.3,28.4,16.4l92.5,160.2c5.8,10.1,5.8,22.6,0,32.8l-92.5,160.2
			c-5.9,10.1-16.7,16.4-28.4,16.4H157.5z"/>
		<path class="st1" d="M342.5,62.5c9.9,0,19.1,5.3,24,13.9l92.5,160.2c4.9,8.6,4.9,19.2,0,27.8l-92.5,160.2
			c-5,8.6-14.1,13.9-24,13.9h-185c-9.9,0-19.1-5.3-24.1-13.9L40.9,264.4c-4.9-8.6-4.9-19.2,0-27.8l92.5-160.2
			c5-8.6,14.1-13.9,24.1-13.9H342.5 M342.5,52.5h-185c-13.5,0-26,7.2-32.7,18.9L32.3,231.6c-6.7,11.7-6.7,26.1,0,37.8l92.5,160.2
			c6.8,11.7,19.2,18.9,32.7,18.9h185c13.5,0,26-7.2,32.7-18.9l92.5-160.2c6.7-11.7,6.7-26.1,0-37.8L375.2,71.4
			C368.5,59.7,356,52.5,342.5,52.5L342.5,52.5z"/>
		
			<image style="overflow:visible;opacity:0.6;enable-background:new    ;" width="232" height="340" xlink:href="3707835E.png"  transform="matrix(1 0 0 1 134 74.5)">
		</image>
		<path class="st1" d="M329.1,345.9c4.3,3.4,6.5,8.9,6.5,16.3c0,7.6-2.1,13.2-6.3,16.8c-4.2,3.5-10.9,5.3-19.9,5.3H188.6
			c-7.4,0-13.3-2.2-17.6-6.6c-4.3-4.4-6.7-10.4-6.5-16.6c0-6.7,2.3-13.2,6.9-19.6l93-126.5h-73c-9.1,0-15.8-1.8-20.1-5.3
			s-6.5-8.9-6.5-16.1c0-7.7,2.2-13.2,6.5-16.8c4.3-3.5,11-5.3,20.1-5.3h115.8c7.3,0,13,2.2,17.4,6.5c4.3,4.4,6.7,10.3,6.5,16.4
			c0,6.9-2.3,13.5-7,19.9l-93,126.5h78.2C318.2,340.8,324.8,342.5,329.1,345.9z M230.8,148.5l-22.9-17.8c-4-3.4-6-7.2-6-11.5
			c0-3.9,1.7-7.5,4.5-10.1c2.8-2.8,6.6-4.4,10.6-4.4c4.5,0.1,8.8,1.9,12,5.1l19,17.2l19-17.2c3.2-3.2,7.5-5.1,12.1-5.1
			c4,0,7.8,1.6,10.6,4.4c2.9,2.6,4.5,6.3,4.5,10.1c0,4.4-2,8.3-6,11.5l-22.9,17.8C255.3,157,240.7,157,230.8,148.5L230.8,148.5z"/>
	</g>
</g>
</svg>
