<svg id="App_Icon_Kit_A" data-name="App Icon Kit A" xmlns="http://www.w3.org/2000/svg" xmlns:xlink="http://www.w3.org/1999/xlink" viewBox="0 0 310 100">
  <defs>
    <clipPath id="clip-path">
      <path d="M157.5,34.85V65.4c0,10.14-.29,35.05-.29,35.05s-38.93.14-54.79.14H54.6c-15.86,0-54.82-.16-54.82-.16s-.25-24.89-.25-35V-.5s39.21.17,55.07.17H157l.44,28.13S157.5,32.18,157.5,34.85Z" style="fill: none"/>
    </clipPath>
    <clipPath id="clip-path-2">
      <path d="M152.53,34.85V65.4c0,10.14.28,35.05.28,35.05s38.93.14,54.79.14h47.83c15.85,0,54.82-.16,54.82-.16s.25-24.89.25-35V-.5s-39.22.17-55.07.17H153l-.45,28.13S152.53,32.18,152.53,34.85Z" style="fill: none"/>
    </clipPath>
  </defs>
  <title>WebNavBKG</title>
  <g id="App_Icon_and_Badge_-_Main" data-name="App Icon and Badge - Main">
    <g>
      <g style="clip-path: url(#clip-path)">
        <g>
          <path d="M190,13.33H-32.94S-40.61-7-32.94-10.4C6.24-27.56,151.1,3.66,190-10.4,198.05-13.33,190,13.33,190,13.33Z" style="fill: #c1152e"/>
          <path d="M190,32.88H-32.94s-7.74-20.45,0-23.74C6.24-7.51,151.1,24.3,190,9.14,197.9,6.05,190,32.88,190,32.88Z" style="fill: #ee8107"/>
          <path d="M190,53.62H-32.94s-7.38-20.13,0-23.73c39.18-19.15,184,11.86,222.91,0C198.35,27.33,190,53.62,190,53.62Z" style="fill: #efe522"/>
          <path d="M190,74.36H-32.94s-7.07-19.88,0-23.73c39.18-21.34,184,12.46,222.91,0C198.27,48,190,74.36,190,74.36Z" style="fill: #52ae31"/>
          <path d="M190,95.11H-32.94s-7.58-20.31,0-23.74c39.18-17.75,184,12.27,222.91-.2C198.27,68.51,190,95.11,190,95.11Z" style="fill: #3671b6"/>
          <path d="M190,115.85H-32.94s-7.58-20.3,0-23.74C6.24,74.36,151.1,104,190,92.11,198.35,89.56,190,115.85,190,115.85Z" style="fill: #974592"/>
        </g>
      </g>
      <g style="clip-path: url(#clip-path-2)">
        <g>
          <path d="M120.06,13.33H343S350.63-7,343-10.4c-39.18-17.16-184,14.06-222.91,0C112-13.33,120.06,13.33,120.06,13.33Z" style="fill: #c1152e"/>
          <path d="M120.06,32.88H343s7.73-20.45,0-23.74c-39.18-16.65-184,15.16-222.91,0C112.13,6.05,120.06,32.88,120.06,32.88Z" style="fill: #ee8107"/>
          <path d="M120.06,53.62H343s7.38-20.13,0-23.73c-39.18-19.15-184,11.86-222.91,0C111.68,27.33,120.06,53.62,120.06,53.62Z" style="fill: #efe522"/>
          <path d="M120.06,74.36H343s7.07-19.88,0-23.73c-39.18-21.34-184,12.46-222.91,0C111.76,48,120.06,74.36,120.06,74.36Z" style="fill: #52ae31"/>
          <path d="M120.06,95.11H343s7.58-20.31,0-23.74c-39.18-17.75-184,12.27-222.91-.2C111.76,68.51,120.06,95.11,120.06,95.11Z" style="fill: #3671b6"/>
          <path d="M120.06,115.85H343s7.58-20.3,0-23.74c-39.18-17.75-184,11.87-222.91,0C111.68,89.56,120.06,115.85,120.06,115.85Z" style="fill: #974592"/>
        </g>
      </g>
    </g>
  </g>
</svg>
